<?xml version="1.0" standalone="no"?>
<!DOCTYPE svg PUBLIC "-//W3C//DTD SVG 20010904//EN"
 "http://www.w3.org/TR/2001/REC-SVG-20010904/DTD/svg10.dtd">
<svg version="1.0" xmlns="http://www.w3.org/2000/svg"
 width="1000.000000pt" height="1000.000000pt" viewBox="0 0 1000.000000 1000.000000"
 preserveAspectRatio="xMidYMid meet">
<metadata>
Created by potrace 1.14, written by Peter Selinger 2001-2017
</metadata>
<g transform="translate(0.000000,1000.000000) scale(0.100000,-0.100000)"
fill="#000000" stroke="none">
<path d="M9320 9948 c0 -46 -29 -181 -50 -233 -4 -11 -13 -40 -19 -65 -7 -25
-18 -64 -25 -87 -8 -24 -9 -43 -4 -43 5 0 5 -7 -1 -18 -6 -12 -5 -23 6 -37 10
-15 14 -45 12 -120 -2 -118 8 -212 26 -241 12 -18 9 -25 -25 -60 -30 -32 -40
-51 -45 -90 -11 -88 -47 -229 -61 -240 -8 -6 -14 -25 -14 -43 0 -24 -4 -31
-20 -31 -14 0 -21 -9 -26 -37 -3 -21 -13 -49 -22 -63 -9 -14 -15 -40 -13 -58
2 -25 -3 -38 -19 -49 -14 -10 -19 -21 -15 -35 4 -12 0 -27 -10 -38 -9 -10 -14
-24 -10 -29 3 -6 2 -11 -2 -11 -5 0 -14 -18 -20 -41 l-11 -41 49 -47 c50 -48
60 -65 35 -55 -22 8 -30 -15 -12 -35 25 -27 19 -34 -20 -28 -20 3 -34 3 -31 0
4 -3 2 -15 -4 -25 -8 -14 -8 -23 0 -31 6 -6 11 -19 11 -29 0 -15 -5 -17 -25
-12 -18 4 -25 2 -25 -8 0 -7 11 -30 25 -50 29 -42 31 -58 10 -58 -20 0 -35
-32 -28 -59 5 -20 3 -21 -22 -15 l-28 7 19 -32 c10 -18 26 -37 35 -42 29 -15
30 -36 3 -31 -26 5 -32 -14 -14 -48 6 -12 6 -21 1 -25 -5 -3 1 -16 15 -30 23
-23 35 -63 15 -50 -5 3 -12 1 -16 -5 -3 -6 4 -10 17 -11 13 0 17 -3 11 -6 -15
-5 -18 -33 -4 -33 6 0 20 -27 32 -60 12 -33 24 -60 28 -60 9 0 25 -45 45 -124
10 -38 26 -80 36 -93 l18 -23 6 30 c3 17 12 30 20 30 9 0 20 9 26 20 6 11 17
20 25 20 8 0 20 8 27 18 15 20 62 47 98 55 15 4 75 7 136 8 114 2 145 -4 242
-48 29 -12 57 -23 62 -23 14 0 139 -121 145 -140 3 -10 13 -20 23 -24 9 -3 27
-13 40 -22 l22 -16 0 1486 0 1486 -340 0 -340 0 0 -52z"/>
<path d="M6240 9889 c0 -5 -16 -9 -35 -9 -20 0 -46 -7 -59 -15 -18 -12 -30
-13 -51 -5 -22 8 -32 6 -56 -11 -16 -11 -29 -28 -30 -37 0 -11 -3 -12 -6 -4
-2 6 -12 12 -22 12 -22 0 -50 -33 -99 -113 -9 -16 -32 -45 -50 -65 l-34 -37 6
50 c3 28 8 70 11 95 l6 45 -15 -30 c-40 -83 -97 -235 -91 -244 11 -19 -6 -77
-30 -103 -12 -14 -30 -39 -39 -56 -9 -17 -25 -36 -35 -42 -16 -8 -21 -6 -26
10 -4 12 -3 26 2 33 13 19 10 130 -4 134 -6 2 -16 -12 -23 -31 -14 -44 -40
-48 -40 -6 0 16 -8 44 -18 62 -10 18 -22 46 -26 62 -4 15 -14 35 -22 44 -14
13 -15 10 -9 -29 3 -24 5 -48 5 -54 -8 -291 -20 -355 -67 -355 -15 0 -23 3
-19 7 3 4 -12 15 -34 25 -28 13 -40 25 -40 40 0 12 -7 29 -15 38 -16 17 -43
108 -51 169 -2 18 -9 41 -14 51 -6 10 -10 27 -10 38 0 22 -35 58 -43 44 -4 -4
1 -21 8 -36 8 -16 13 -38 10 -50 -3 -11 -7 -52 -9 -91 -3 -62 -6 -71 -27 -82
-13 -7 -18 -13 -11 -13 6 0 12 -7 12 -15 0 -8 -4 -15 -9 -15 -12 0 -23 29 -15
41 7 12 -15 41 -27 34 -4 -3 -12 2 -17 11 -9 16 -11 15 -21 -4 -6 -11 -8 -27
-5 -36 3 -8 0 -23 -6 -33 -10 -16 -11 -16 -7 5 3 12 1 22 -4 22 -11 0 -30 -45
-26 -63 1 -6 -8 -13 -20 -15 -15 -2 -23 -10 -23 -23 0 -27 -40 -26 -47 2 -4
16 -11 19 -29 15 -17 -5 -29 0 -41 14 -10 11 -21 20 -25 20 -5 0 -27 9 -51 19
-61 28 -116 41 -167 40 -25 -1 -35 -4 -22 -6 12 -2 22 -8 22 -13 0 -5 -10 -10
-22 -13 -22 -3 -21 -4 7 -16 l30 -13 -42 -19 c-33 -14 -50 -16 -75 -8 -41 11
-48 11 -48 -1 0 -5 7 -10 15 -10 8 0 15 -4 15 -10 0 -5 -7 -10 -15 -10 -8 0
-15 -6 -15 -14 0 -21 -32 -25 -86 -11 -58 15 -97 6 -44 -10 19 -5 46 -18 60
-28 20 -14 22 -19 11 -27 -12 -7 -9 -10 13 -16 l29 -7 -24 -18 c-13 -10 -19
-19 -14 -19 6 -1 -3 -7 -20 -15 l-30 -14 30 1 c17 0 44 -5 60 -12 17 -7 53
-12 80 -11 40 1 59 -4 98 -29 26 -16 51 -40 56 -52 9 -25 -2 -29 -104 -44 -65
-9 -69 -12 -51 -30 19 -18 20 -30 5 -39 -6 -4 -13 2 -16 14 -5 21 -23 30 -23
11 0 -5 -9 -14 -21 -20 -16 -9 -26 -8 -46 6 -36 23 -93 86 -93 102 0 17 -61
83 -71 76 -11 -6 18 -54 44 -73 13 -9 15 -17 9 -23 -7 -7 1 -26 23 -59 44 -62
53 -96 28 -102 -10 -3 -4 -5 15 -6 21 -1 32 -6 32 -16 0 -17 0 -17 -104 -23
-19 -1 -27 -6 -23 -16 4 -10 0 -12 -15 -8 -16 4 -19 1 -14 -14 3 -10 2 -24 -2
-29 -12 -18 -69 -55 -84 -55 -7 0 -18 -8 -25 -18 -6 -10 -45 -32 -86 -47 -76
-29 -97 -52 -31 -33 46 12 53 5 17 -18 -15 -10 -31 -22 -34 -27 -3 -4 -18 -11
-34 -15 -15 -5 -35 -18 -43 -30 -13 -20 -13 -22 1 -17 30 12 27 -14 -5 -39
-49 -38 -25 -34 82 13 21 9 21 10 3 5 -17 -4 -23 -1 -23 10 0 9 12 18 28 22
15 3 42 10 60 16 34 10 62 5 62 -11 0 -10 -10 -14 -62 -25 -16 -4 -28 -13 -28
-20 0 -8 -26 -24 -57 -37 -32 -13 -73 -34 -92 -46 -19 -13 -37 -23 -41 -23 -4
0 -10 -7 -13 -15 -5 -11 -1 -12 18 -5 14 5 31 7 39 4 7 -3 34 9 59 25 25 17
53 31 63 31 11 0 50 6 88 14 48 10 76 12 94 5 l26 -10 -27 -24 c-14 -14 -31
-25 -38 -25 -30 0 -207 -115 -258 -167 -27 -29 -23 -41 5 -15 16 16 64 36 64
28 0 -8 -38 -45 -42 -41 -2 3 -17 -9 -33 -25 -21 -22 -24 -30 -13 -30 9 0 21
7 28 15 7 8 16 12 21 9 5 -3 9 0 9 7 0 10 3 10 11 2 8 -8 7 -19 -3 -40 -8 -15
-22 -43 -31 -61 -19 -38 -22 -72 -7 -72 6 0 10 9 10 20 0 19 50 90 122 173 59
67 72 77 113 88 22 6 53 15 69 20 24 8 27 6 21 -9 -4 -9 -12 -30 -18 -47 -6
-16 -27 -57 -46 -90 -20 -33 -47 -87 -60 -120 -28 -70 -62 -137 -75 -146 -5
-4 -5 -12 -1 -18 4 -7 2 -18 -4 -25 -8 -10 -8 -21 -1 -42 11 -28 7 -66 -21
-219 -13 -74 -12 -244 3 -345 8 -56 8 -96 -1 -158 -6 -45 -9 -87 -7 -91 3 -5
8 -30 11 -57 4 -26 8 -52 11 -56 3 -5 0 -52 -8 -106 -16 -122 -16 -117 3 -114
20 3 27 -38 44 -243 10 -132 14 -145 41 -155 37 -14 35 -33 -30 -350 -8 -41
-25 -106 -36 -145 -20 -64 -21 -84 -15 -240 9 -220 18 -324 30 -333 17 -12 37
-81 30 -104 -11 -33 -13 -232 -3 -245 6 -7 5 -19 -1 -32 -6 -11 -12 -37 -14
-58 -1 -21 -6 -44 -10 -50 -5 -8 -3 -13 3 -13 7 0 10 -19 9 -52 -2 -29 2 -63
9 -75 8 -15 9 -30 3 -46 -5 -13 -6 -28 -1 -33 7 -9 26 -136 34 -234 9 -116 20
-195 27 -200 5 -3 9 -47 11 -98 3 -77 6 -92 19 -92 19 0 29 -28 29 -78 0 -19
9 -45 20 -59 11 -14 20 -33 20 -41 0 -23 63 -186 76 -197 7 -5 14 -21 17 -35
22 -98 31 -127 44 -142 17 -19 58 -92 69 -120 3 -10 10 -18 15 -18 5 0 9 -7 9
-15 0 -25 37 -76 70 -96 17 -11 30 -25 27 -32 -5 -15 17 -37 36 -37 8 0 14 -8
13 -18 -1 -11 5 -16 16 -14 9 1 25 -9 34 -23 9 -14 21 -25 27 -25 6 0 17 -7
26 -15 46 -41 59 -51 83 -62 17 -8 26 -18 22 -26 -3 -10 9 -18 43 -27 57 -16
85 -49 105 -120 3 -8 13 -15 23 -15 9 0 25 -11 34 -25 10 -15 11 -21 3 -16
-22 13 -42 -14 -42 -58 0 -57 10 -86 27 -86 13 0 13 -3 3 -15 -13 -16 -6 -65
10 -65 6 0 10 -18 10 -41 0 -48 16 -83 35 -75 8 3 17 -6 24 -25 11 -31 30 -40
27 -12 0 10 7 19 17 21 14 3 18 -1 15 -20 -2 -19 2 -23 29 -26 24 -2 33 1 38
17 7 23 35 29 35 8 0 -9 10 -12 30 -9 17 2 30 10 30 17 0 26 27 22 51 -6 13
-16 31 -29 41 -29 9 0 19 -8 21 -17 4 -15 6 -15 12 5 8 23 45 31 45 10 0 -7
14 -25 31 -39 19 -15 29 -31 25 -37 -9 -15 -36 -16 -36 -2 0 6 -4 10 -9 10 -5
0 -4 -13 2 -29 11 -31 61 -54 107 -50 14 1 51 1 83 1 43 -2 57 -6 57 -17 0
-19 14 -19 30 0 7 8 19 15 27 15 13 0 13 -3 3 -15 -15 -19 3 -45 31 -45 10 0
21 -4 24 -10 3 -5 15 -10 26 -10 10 0 19 -7 19 -15 0 -19 14 -19 33 -1 11 11
29 13 70 9 42 -4 61 -2 78 11 13 9 31 16 41 16 10 0 18 5 18 12 0 9 3 9 12 0
9 -9 8 -15 -8 -27 -25 -19 -12 -19 33 0 29 12 38 13 44 3 8 -13 11 -12 84 18
19 7 19 7 3 -9 -9 -9 -24 -17 -32 -17 -9 0 -16 -5 -16 -11 0 -7 10 -9 25 -7
14 3 33 -1 42 -8 17 -13 17 -15 -6 -34 -23 -20 -23 -20 -2 -20 21 0 26 13 22
58 -1 16 4 22 19 22 15 0 20 -7 20 -26 0 -14 4 -23 10 -19 6 3 10 17 10 31 0
15 16 40 45 68 25 25 45 50 45 55 0 6 11 11 25 11 14 0 25 -4 25 -10 0 -5 5
-10 10 -10 15 0 12 30 -2 30 -19 1 34 29 55 30 9 0 17 5 17 11 0 6 8 8 19 4
10 -3 24 1 31 10 7 8 19 15 26 15 8 0 11 6 8 15 -5 11 1 15 19 15 14 0 30 6
34 14 4 7 18 18 31 25 12 6 22 19 22 29 0 9 9 23 20 30 12 7 18 17 15 22 -7
11 18 40 34 40 6 0 8 7 5 15 -5 12 2 15 30 15 21 0 42 7 53 19 10 10 27 23 38
29 19 11 19 11 -3 12 -12 0 -31 -6 -42 -12 -15 -10 -22 -10 -32 0 -9 9 -9 12
0 12 16 0 15 37 0 44 -9 3 -8 8 5 16 11 7 29 23 40 37 12 14 32 29 44 34 19 7
21 14 17 47 -4 33 -1 41 25 59 17 14 37 20 50 16 16 -4 21 -1 21 14 0 10 7 29
16 42 16 22 16 24 0 33 -20 11 -21 28 -1 28 8 0 15 8 15 18 1 9 19 31 40 47
22 17 42 38 45 48 4 9 13 17 21 17 8 0 14 8 14 19 0 10 7 24 15 31 10 8 12 17
6 23 -9 9 12 35 99 127 19 20 43 50 53 67 21 39 23 77 3 70 -10 -4 -13 -1 -9
9 3 7 9 14 14 14 5 0 9 9 9 21 0 13 5 19 13 16 20 -8 57 11 51 26 -3 8 2 21
10 30 24 23 21 84 -4 92 -11 3 -24 3 -30 0 -5 -3 -10 0 -10 7 0 7 8 18 18 25
15 9 18 19 13 55 -6 40 -8 43 -36 43 -27 0 -30 -3 -33 -38 -2 -20 -7 -35 -12
-32 -5 3 -6 13 -3 23 6 15 5 15 -10 3 -9 -7 -17 -20 -17 -28 0 -9 -6 -13 -15
-10 -8 4 -17 1 -21 -5 -5 -7 -10 -4 -15 10 -5 14 -14 20 -24 16 -9 -4 -15 -1
-15 9 0 10 6 13 21 10 19 -5 20 -4 9 17 -6 12 -10 31 -7 41 3 10 2 21 -3 24
-11 7 -20 -21 -14 -42 5 -17 5 -17 -9 0 -8 9 -16 17 -18 17 -2 0 -4 -53 -5
-118 0 -64 3 -101 6 -82 l6 35 8 -30 c4 -16 12 -33 17 -36 12 -7 1 -59 -13
-59 -14 0 -38 65 -38 105 0 24 -4 35 -15 35 -8 0 -15 -8 -16 -17 0 -16 -1 -15
-8 1 -13 34 -41 -89 -41 -177 0 -21 -6 -44 -14 -52 -12 -13 -15 -7 -18 40 -1
30 0 55 5 55 4 0 7 10 7 23 0 18 -2 19 -11 7 -7 -11 -9 -2 -7 34 1 32 -2 51
-10 54 -7 2 -12 -6 -13 -20 -1 -19 -2 -18 -8 6 -10 46 -31 45 -31 -2 0 -22 -5
-42 -12 -44 -15 -5 23 -114 39 -111 10 2 11 -33 3 -57 -1 -3 -2 -18 -2 -35 1
-16 -2 -22 -4 -13 -3 9 -14 20 -25 23 -10 4 -19 15 -19 26 0 10 -5 19 -10 19
-6 0 -8 -16 -4 -42 6 -36 5 -40 -9 -35 -9 3 -19 2 -22 -3 -10 -17 -21 -11 -33
15 -15 32 -15 35 -2 35 6 0 10 -7 10 -15 0 -16 16 -21 23 -7 3 4 7 30 11 57
l6 50 -22 -37 c-27 -44 -41 -49 -32 -12 4 14 2 35 -3 47 -6 12 -15 34 -22 50
-13 33 -36 37 -26 4 21 -71 27 -98 21 -112 -10 -28 -24 -15 -31 31 -5 38 -9
43 -21 33 -11 -9 -14 -8 -14 5 0 9 -4 16 -10 16 -14 0 -13 33 1 47 6 6 9 17 6
25 -3 8 -8 4 -15 -12 l-10 -25 -10 25 c-6 14 -13 34 -16 44 -9 27 -18 13 -18
-29 0 -31 -3 -35 -20 -29 -18 5 -19 1 -18 -48 2 -68 0 -78 -9 -53 -6 15 -9 10
-16 -25 -7 -43 -8 -44 -15 -17 -5 16 -13 34 -18 40 -5 7 -12 48 -15 92 -3 44
-9 88 -13 99 -5 14 -3 17 7 14 8 -3 15 -13 15 -24 1 -10 3 -23 4 -29 1 -5 1
-22 0 -37 -1 -14 3 -29 9 -33 7 -4 11 13 11 52 0 60 -10 87 -32 89 -31 2 -45
16 -40 40 3 18 0 24 -14 25 -11 0 -14 3 -7 6 8 3 3 13 -15 29 -26 23 -26 25
-8 35 15 9 16 13 5 20 -7 4 -11 11 -7 14 3 4 18 -1 32 -11 15 -9 29 -14 33
-11 9 10 -7 58 -18 52 -5 -4 -16 -1 -24 5 -11 9 -15 9 -15 1 0 -6 -5 -11 -12
-11 -9 0 -9 3 0 12 13 13 17 48 6 48 -4 0 -13 -8 -20 -17 -11 -14 -13 -15 -9
-2 3 9 -1 21 -9 28 -7 6 -12 21 -9 31 3 11 0 20 -6 20 -6 0 -11 7 -11 15 0 9
-11 20 -24 25 -14 5 -30 18 -36 30 -12 22 -5 44 11 35 5 -4 9 -1 9 6 0 8 4 8
15 -1 12 -10 15 -10 15 2 0 8 -5 19 -12 26 -9 9 -14 7 -23 -5 -13 -18 -35 -10
-35 13 0 8 -4 14 -10 14 -5 0 -10 -4 -10 -9 0 -6 5 -13 10 -16 6 -3 10 -20 10
-36 0 -18 10 -40 26 -57 14 -15 28 -39 31 -55 3 -15 10 -30 14 -33 5 -3 7 -10
4 -15 -4 -5 -2 -9 2 -9 5 0 9 -9 10 -21 1 -12 10 -27 20 -35 16 -12 16 -15 3
-24 -8 -6 -22 -8 -32 -6 -15 3 -14 0 2 -27 21 -34 18 -49 -8 -40 -14 5 -14 3
3 -14 11 -10 28 -22 38 -26 29 -11 20 -30 -12 -25 l-29 4 22 -29 c19 -26 19
-29 4 -38 -10 -6 -14 -17 -11 -31 5 -23 5 -23 -10 -3 -9 11 -17 25 -17 31 0
24 -27 64 -50 75 -15 7 -20 13 -12 16 22 8 12 22 -15 20 -22 -2 -27 2 -25 16
2 9 -3 17 -11 17 -21 0 -38 -25 -31 -44 7 -19 -11 -22 -23 -3 -5 8 -9 2 -13
-18 -7 -40 -24 -38 -28 3 -2 19 -9 32 -17 32 -11 0 -13 -8 -8 -32 5 -28 4 -31
-15 -26 -19 5 -19 3 -10 -18 10 -20 8 -27 -8 -39 -17 -13 -17 -14 -1 -15 10 0
17 -8 17 -21 0 -18 -4 -20 -32 -14 -46 10 -53 16 -36 29 12 9 4 11 -33 11 -27
0 -49 -1 -49 -3 0 -2 6 -10 14 -18 18 -17 36 -18 36 -2 0 7 5 6 13 -4 6 -8 27
-22 45 -29 17 -8 32 -17 32 -21 0 -11 -14 -10 -26 2 -7 7 -16 6 -28 -3 -18
-13 -17 -15 8 -55 21 -33 23 -42 11 -42 -9 0 -18 6 -21 13 -3 8 -18 14 -34 15
-35 1 -41 -15 -7 -20 17 -2 22 -9 20 -29 -1 -19 5 -30 20 -37 l22 -11 -22 0
c-13 -1 -23 -5 -23 -11 0 -5 -6 -10 -14 -10 -17 0 -31 -18 -21 -28 3 -3 10 0
15 8 7 10 8 0 4 -29 -4 -30 -3 -41 5 -37 6 4 11 23 11 42 0 35 13 46 24 18 8
-21 8 -26 -3 -20 -5 3 -11 -8 -13 -24 -3 -17 -1 -30 4 -30 4 0 8 -5 8 -11 0
-5 -4 -7 -10 -4 -5 3 -10 -2 -11 -12 0 -14 -2 -15 -6 -3 -3 8 -14 26 -24 39
-19 24 -19 24 -19 2 0 -12 -4 -19 -10 -16 -13 8 -13 45 1 45 6 0 8 8 4 19 -3
11 -8 29 -10 40 -6 32 -14 41 -36 41 -26 0 -24 -14 4 -28 18 -9 19 -11 4 -11
-28 -1 -52 26 -37 44 9 11 7 14 -12 17 -15 2 -22 9 -20 21 4 23 -11 22 -33 -3
-10 -11 -22 -17 -26 -14 -5 3 -9 -6 -9 -20 0 -14 -4 -26 -9 -26 -13 0 -20 -37
-9 -48 5 -5 11 -22 14 -38 l4 -29 -22 34 c-21 33 -22 33 -30 11 -6 -17 -11
-20 -22 -11 -11 9 -15 8 -20 -5 -5 -12 -10 -14 -17 -7 -7 7 -7 17 3 33 10 18
10 24 1 27 -7 3 -13 11 -13 19 0 17 -12 18 -28 2 -15 -15 -40 5 -44 35 -2 17
-10 22 -32 22 -23 0 -32 6 -37 25 -6 20 -7 21 -8 5 -1 -19 33 -84 49 -95 4 -3
4 -14 -1 -25 l-8 -20 0 20 c-1 17 -3 17 -11 5 -8 -12 -10 -11 -10 8 0 12 -9
30 -20 39 -16 14 -19 25 -14 50 4 21 2 33 -5 33 -6 0 -11 -10 -11 -22 0 -19
-2 -20 -11 -8 -8 11 -9 9 -3 -10 4 -14 9 -27 13 -30 12 -10 29 -46 35 -75 7
-34 -6 -65 -19 -45 -4 7 -2 16 6 21 7 4 11 11 7 14 -3 4 -15 1 -27 -6 -24 -16
-39 -6 -22 15 13 15 5 66 -10 66 -5 0 -6 -12 -3 -26 6 -24 5 -25 -14 -13 -11
7 -23 22 -26 32 -7 29 -26 10 -26 -26 0 -22 -3 -28 -9 -18 -5 8 -19 12 -33 9
-21 -4 -24 -1 -20 19 3 18 1 22 -11 18 -8 -4 -14 -17 -14 -31 0 -27 -27 -53
-55 -54 -10 0 -18 -7 -18 -16 0 -8 -4 -12 -10 -9 -13 8 -13 75 0 75 5 0 7 -7
4 -15 -4 -8 -1 -15 6 -15 8 0 10 9 6 25 -5 18 -1 28 14 37 11 7 20 16 20 21 0
4 -5 5 -11 2 -6 -4 -13 2 -16 14 -3 12 -10 21 -15 21 -5 0 -7 -4 -4 -9 8 -13
-11 -61 -24 -61 -6 0 -15 10 -19 23 -8 19 -10 20 -16 5 -11 -27 -28 -21 -23 7
3 14 1 25 -3 25 -5 0 -9 -17 -10 -37 0 -21 -4 -47 -9 -58 -7 -16 -9 -14 -10
15 -1 33 -1 34 -15 16 -14 -19 -15 -18 -15 16 0 48 -8 68 -26 61 -8 -3 -14 1
-14 9 0 7 -9 21 -20 31 -27 23 -51 8 -81 -49 -18 -36 -20 -47 -10 -75 14 -40
14 -69 1 -69 -5 0 -10 7 -10 15 0 8 -6 14 -12 13 -9 -2 -12 7 -10 27 2 22 0
26 -7 16 -7 -11 -10 -9 -14 10 -4 23 -4 23 -6 -3 0 -15 -5 -29 -10 -32 -10 -6
-7 37 5 73 7 23 8 24 15 5 7 -18 8 -18 8 0 1 10 9 25 19 32 10 8 12 13 5 14
-18 0 -16 20 2 20 8 0 15 5 15 11 0 13 20 34 40 42 9 3 4 6 -12 6 -16 1 -28
-2 -28 -7 0 -19 -36 -28 -60 -15 l-25 14 30 -3 c30 -3 33 2 20 34 -5 13 -2 18
10 18 21 0 48 27 40 40 -3 5 3 10 14 10 12 0 21 5 21 10 0 6 -8 10 -17 8 -11
-2 -17 2 -15 11 2 8 0 21 -4 30 -5 13 -8 12 -15 -6 -6 -17 -16 -23 -36 -22
-26 0 -27 1 -6 9 15 6 20 15 16 29 -4 16 -1 21 13 21 16 0 16 2 4 10 -9 6 -17
5 -22 -3 -4 -6 -10 -8 -14 -4 -4 3 -1 13 6 22 10 13 9 15 -7 15 -10 0 -26 9
-36 20 -15 17 -21 19 -39 9 -22 -12 -22 -12 -3 -19 15 -6 9 -10 -28 -17 -27
-6 -58 -8 -69 -5 -17 4 -20 2 -15 -11 6 -17 -4 -23 -16 -11 -10 11 5 34 23 34
9 0 25 9 35 20 18 20 18 20 -18 5 -47 -19 -73 -19 -81 1 -8 22 -9 21 17 29 19
7 17 9 -16 12 -33 4 -38 7 -34 24 4 14 1 20 -11 18 -29 -2 -58 2 -44 8 18 7
15 23 -5 23 -15 0 -16 2 -3 10 12 7 12 12 3 21 -9 9 -16 9 -25 1 -11 -8 -17
-6 -27 11 -8 13 -10 22 -4 24 6 2 19 11 29 19 18 14 17 15 -13 9 -28 -6 -32
-4 -27 10 5 11 0 18 -15 22 -11 3 -21 9 -21 14 0 5 -11 7 -25 3 l-24 -6 20 41
c19 41 16 66 -8 66 -7 0 -13 5 -12 10 0 6 7 9 15 7 8 -2 14 2 14 8 0 5 -9 10
-20 10 -17 0 -19 3 -10 19 7 14 6 21 -3 24 -6 3 -4 6 7 6 15 1 16 3 6 17 -11
12 -10 18 3 31 13 13 19 14 31 4 21 -18 37 -4 30 25 -5 19 -2 24 14 24 11 0
30 13 42 29 27 39 85 48 155 27 56 -18 121 -21 130 -7 3 5 17 6 33 2 28 -9 51
5 53 31 0 7 4 4 9 -7 7 -17 9 -17 9 -2 1 19 16 23 26 7 4 -6 16 -5 34 4 32 17
99 14 231 -9 47 -8 139 -19 205 -25 151 -13 265 -31 265 -42 0 -4 9 -8 20 -8
11 0 20 -5 20 -11 0 -6 6 -9 13 -6 6 2 21 -4 32 -14 15 -13 80 -28 245 -55
224 -36 246 -44 263 -84 4 -11 7 -9 12 7 4 13 14 23 21 23 8 0 14 5 14 10 0 6
-6 10 -14 10 -17 0 -31 33 -17 38 6 2 11 17 11 33 0 16 4 29 8 29 10 0 32 -45
32 -65 0 -8 4 -15 10 -15 11 0 2 59 -12 76 -5 7 -3 16 6 23 20 17 58 -3 49
-25 -5 -14 -3 -14 16 -3 11 8 21 16 21 20 0 9 -59 59 -69 59 -12 0 -41 29 -41
40 0 5 7 7 15 4 8 -4 15 -12 15 -20 0 -8 6 -14 14 -14 15 0 11 36 -5 46 -5 3
-9 15 -9 28 0 13 -12 31 -30 44 -31 24 -50 28 -50 12 0 -5 -4 -10 -10 -10 -5
0 -10 9 -10 20 0 23 -25 27 -34 5 -7 -19 -21 -19 -41 1 -13 13 -18 14 -31 3
-13 -10 -17 -10 -25 2 -5 8 -9 20 -9 28 0 9 -7 11 -22 8 -13 -4 -29 0 -39 9
-15 13 -18 13 -32 -1 -14 -14 -16 -13 -19 11 -2 18 -15 33 -39 47 -34 20 -37
20 -53 4 -23 -23 -36 -21 -36 3 0 11 -9 25 -20 32 -11 7 -20 18 -20 24 0 7 -9
14 -20 17 -14 4 -18 11 -14 24 3 10 -3 6 -12 -10 -10 -15 -24 -27 -31 -27 -7
0 -13 -9 -13 -19 0 -30 -11 -51 -26 -51 -8 0 -14 5 -14 10 0 6 5 10 10 10 6 0
10 11 10 25 0 14 8 29 20 35 21 11 26 45 11 68 -6 11 -11 10 -25 -3 -26 -27
-51 -15 -54 27 -2 22 -9 39 -19 42 -21 9 -28 0 -14 -18 9 -11 7 -20 -14 -42
-14 -15 -28 -24 -31 -21 -4 3 1 13 10 22 9 10 16 33 16 56 0 26 5 42 15 46 22
8 33 -6 15 -18 -11 -7 -6 -9 20 -7 40 3 49 31 12 36 -18 3 -23 8 -19 23 6 23
-6 25 -28 3 -15 -15 -19 -16 -48 -2 l-32 16 38 7 c34 7 53 25 25 25 -20 0 -66
43 -73 68 -5 18 -2 22 14 22 11 0 23 -5 26 -10 16 -26 81 -42 144 -36 69 6 89
20 64 44 -8 8 -26 34 -40 56 -15 23 -37 51 -51 63 -60 51 -186 55 -288 9 -69
-32 -109 -76 -68 -76 8 0 13 -4 10 -9 -8 -12 21 -34 33 -26 6 3 22 -2 37 -11
l26 -17 -28 -15 c-15 -8 -48 -16 -73 -17 -25 -2 -63 -6 -84 -10 -24 -5 -42 -3
-52 5 -17 14 -9 34 10 26 17 -6 39 19 30 34 -5 7 -20 9 -40 6 -23 -5 -36 -2
-42 7 -4 7 -22 22 -39 31 -17 10 -45 40 -63 66 -18 27 -46 60 -62 74 -28 26
-79 36 -79 16 0 -5 -4 -10 -10 -10 -6 0 -19 -9 -31 -21 -15 -15 -18 -24 -10
-32 6 -6 11 -19 11 -29 0 -10 4 -18 8 -18 4 0 16 -15 27 -32 10 -18 24 -37 32
-41 22 -14 14 -26 -19 -29 -26 -2 -32 -7 -30 -21 2 -11 -4 -27 -13 -37 -9 -10
-14 -23 -11 -28 3 -5 -8 -24 -24 -42 -24 -26 -35 -32 -59 -28 -21 3 -31 0 -31
-8 0 -22 -31 -45 -51 -39 -11 4 -19 2 -19 -4 0 -6 -7 -11 -16 -11 -8 0 -12 5
-9 10 3 6 -1 10 -9 10 -19 0 -21 -36 -3 -44 6 -3 -7 -4 -29 -2 -36 3 -47 -1
-80 -30 -42 -38 -45 -39 -62 -22 -9 9 -15 8 -25 -7 -8 -10 -19 -15 -25 -11 -7
4 -12 2 -12 -3 0 -6 -6 -11 -13 -11 -14 0 -47 -35 -47 -51 0 -6 -12 -26 -27
-45 -20 -26 -27 -48 -29 -90 -1 -30 -7 -60 -13 -67 -7 -9 -5 -16 10 -25 18
-12 18 -14 4 -35 -8 -12 -15 -29 -15 -39 0 -10 -6 -18 -14 -18 -14 0 -26 -53
-32 -134 -2 -37 16 -73 30 -59 10 10 6 -21 -5 -37 -8 -13 -9 -12 -7 4 2 10 -2
21 -8 23 -16 6 -27 -29 -12 -38 7 -4 9 -11 6 -15 -4 -3 -14 1 -24 10 -13 14
-14 22 -5 44 13 31 11 122 -2 122 -5 0 -15 -7 -23 -15 -39 -38 -46 -1 -9 43
30 36 31 46 5 39 -23 -6 -26 3 -7 22 6 7 8 12 2 11 -5 -2 -20 -2 -32 -1 -19 1
-23 7 -23 35 0 39 -17 50 -42 28 -16 -14 -18 -13 -18 2 0 9 7 28 16 42 9 13
14 27 10 31 -3 3 -6 1 -6 -5 0 -7 -6 -12 -14 -12 -8 0 -17 16 -21 38 -4 20
-10 42 -15 47 -4 6 -10 25 -14 43 -3 17 -9 46 -12 63 -4 19 -14 34 -25 36 -11
3 -19 9 -19 14 0 5 -7 9 -15 9 -8 0 -15 5 -15 10 0 6 5 10 10 10 7 0 7 7 0 21
-11 19 -14 51 -24 234 -2 39 -9 99 -15 135 -5 36 -11 91 -13 123 -2 31 -7 57
-12 57 -4 0 -6 9 -3 19 2 10 0 50 -5 88 -24 182 -28 213 -34 287 -6 75 6 194
25 241 5 11 16 39 25 63 9 23 23 61 32 85 9 23 20 51 24 62 4 11 12 31 18 45
7 14 31 86 55 160 44 134 55 152 87 129 11 -8 12 -12 3 -16 -23 -9 -13 -23 16
-23 16 0 36 7 45 15 21 22 26 18 13 -10 -7 -14 -18 -25 -25 -25 -8 0 -10 -9
-6 -27 11 -45 22 -60 49 -67 l26 -7 -21 -27 -22 -27 66 -7 c78 -8 86 -12 86
-43 0 -26 25 -45 59 -45 12 0 21 -7 21 -15 0 -23 39 -18 60 7 16 21 21 21 76
11 48 -9 63 -8 82 3 19 13 22 13 22 -1 0 -9 9 -15 23 -15 30 0 40 10 26 26 -6
8 -9 21 -5 29 5 13 17 15 70 10 l65 -5 30 44 c34 49 39 74 16 82 -18 7 -19 31
-2 47 56 52 50 51 111 17 31 -18 56 -35 56 -39 0 -15 56 -69 75 -73 16 -3 19
-10 17 -33 -2 -16 -9 -33 -15 -37 -7 -4 1 -8 19 -8 31 0 74 34 74 59 0 6 10
25 22 42 18 24 23 45 24 112 3 104 12 147 31 147 10 0 13 6 9 16 -8 20 10 44
33 44 23 0 43 51 39 101 -4 52 -18 59 -41 19 -10 -16 -25 -30 -33 -30 -8 0
-13 4 -10 9 3 5 -4 11 -16 14 -13 4 -26 1 -30 -6 -4 -7 -8 7 -8 31 0 39 -13
57 -22 30 -6 -18 -37 -1 -48 27 -5 14 -18 28 -27 31 -10 3 -26 10 -35 15 -10
5 -29 9 -43 9 -14 0 -25 4 -25 8 0 10 -100 31 -180 38 -135 12 -446 2 -462
-14 -7 -7 -21 -12 -31 -12 -11 0 -29 -10 -41 -23 -11 -13 -49 -42 -83 -65 -52
-35 -63 -39 -73 -27 -10 12 -9 15 6 16 12 0 14 3 6 6 -10 4 -9 8 5 19 13 10
14 13 4 14 -11 0 -10 4 3 19 10 11 15 24 12 30 -3 5 5 23 19 39 14 16 25 36
25 43 0 8 11 36 25 64 14 27 23 55 21 61 -2 6 -1 15 4 20 8 9 16 34 46 143 8
30 20 61 26 69 15 17 32 46 53 92 82 173 92 189 128 190 11 0 17 8 17 25 0 17
4 23 15 19 15 -6 33 10 105 94 24 28 50 52 57 52 8 0 19 11 25 25 12 27 62 38
52 11 -4 -11 0 -13 14 -9 11 2 23 0 26 -6 9 -14 26 -14 26 -1 0 6 -7 10 -15
10 -8 0 -15 5 -15 10 0 17 19 11 32 -10 7 -11 18 -20 24 -20 6 0 23 -9 38 -21
14 -11 26 -17 26 -13 0 4 8 0 18 -9 10 -10 21 -15 24 -12 3 3 11 -1 18 -10 7
-8 18 -15 26 -15 7 0 15 -9 19 -19 4 -13 22 -23 58 -31 50 -11 82 -22 119 -41
32 -16 125 -10 162 11 35 19 36 19 46 0 15 -29 99 -63 117 -48 12 10 12 13 -2
21 -9 5 -28 6 -41 3 -22 -6 -25 -4 -22 16 2 19 8 22 33 20 17 -2 35 -8 41 -13
7 -6 21 -6 35 0 18 7 19 10 7 10 -19 1 -26 21 -7 21 6 0 3 7 -5 16 -9 8 -14
20 -11 24 5 8 132 -62 145 -80 21 -29 120 -75 120 -56 0 14 -90 97 -99 92 -7
-4 -9 -1 -5 8 4 10 1 16 -7 16 -20 0 -48 30 -42 46 3 8 -1 14 -8 14 -8 0 -1 7
15 15 16 9 37 13 47 10 9 -3 20 -1 24 5 3 5 20 10 37 10 23 0 29 -4 24 -15 -3
-10 1 -15 13 -15 18 0 85 -72 87 -94 1 -6 2 -17 3 -23 0 -7 6 -13 12 -13 16 0
46 -41 104 -138 28 -47 55 -84 60 -83 12 2 12 47 0 76 -8 18 -6 18 17 -2 34
-32 43 -29 19 6 -12 16 -21 36 -21 45 0 9 -9 24 -20 33 -11 10 -20 21 -20 26
0 5 -11 18 -25 29 -14 11 -25 28 -25 38 0 10 -5 20 -11 22 -7 2 -7 12 0 30 8
22 18 28 55 33 59 9 79 2 71 -26 -5 -14 -2 -25 6 -30 18 -12 32 -11 24 0 -10
17 12 21 25 6 8 -10 9 -15 1 -15 -6 0 -2 -17 10 -40 12 -22 28 -40 36 -40 8 0
12 4 8 9 -3 5 0 13 6 17 6 3 15 1 19 -6 4 -7 12 -10 18 -7 12 8 96 -47 121
-79 10 -13 24 -24 29 -24 6 0 13 -9 17 -19 3 -11 15 -23 26 -26 10 -4 19 -10
19 -14 0 -5 11 -6 25 -3 24 4 36 32 15 32 -5 0 -10 7 -10 15 0 19 9 19 29 1 9
-7 30 -17 46 -20 l30 -8 -27 29 c-16 16 -28 34 -28 40 0 16 51 13 85 -5 17 -9
40 -15 53 -13 12 1 22 -2 22 -7 0 -6 13 -13 30 -17 16 -4 43 -19 60 -35 26
-24 32 -26 44 -14 17 17 42 18 52 3 3 -6 17 -8 31 -4 14 3 31 1 39 -6 8 -6 23
-9 33 -6 11 3 29 -2 40 -10 18 -12 27 -12 57 -1 27 10 38 10 52 0 9 -7 26 -16
37 -21 22 -9 53 -41 40 -41 -4 0 -2 -6 4 -14 7 -9 8 -17 2 -20 -5 -3 -11 -1
-13 6 -2 6 -9 9 -15 5 -7 -5 -8 -19 -3 -43 5 -20 6 -43 3 -50 -3 -8 0 -14 6
-14 6 0 11 -14 11 -30 0 -28 -2 -30 -27 -24 l-28 7 25 -27 c18 -20 21 -29 12
-35 -10 -6 -10 -11 3 -21 12 -10 15 -10 15 4 0 9 5 16 10 16 6 0 8 -11 4 -25
-3 -14 -2 -31 3 -38 5 -6 18 -34 28 -62 10 -27 22 -54 26 -59 5 -6 9 -21 9
-34 0 -13 4 -21 9 -18 5 3 19 -13 31 -37 12 -23 30 -51 39 -62 10 -11 28 -38
41 -60 13 -22 31 -47 40 -55 39 -35 132 -173 156 -232 14 -34 32 -74 39 -88
18 -34 37 -106 41 -155 1 -22 6 -51 9 -65 6 -25 9 -53 13 -118 1 -18 11 -40
22 -49 24 -21 28 -58 4 -49 -11 4 -10 -2 6 -24 12 -17 26 -30 31 -30 6 0 8
-10 5 -22 -3 -13 -3 -17 0 -10 9 20 21 14 37 -20 20 -43 20 -53 -1 -53 -16 0
-18 -6 -14 -54 2 -17 5 -18 27 -8 18 9 25 20 26 42 1 17 3 22 6 13 6 -23 15
-23 35 1 25 29 38 57 38 82 0 12 16 56 35 97 35 73 36 74 56 56 19 -17 20 -17
31 14 7 18 18 32 25 32 7 0 13 11 13 25 0 23 8 29 35 27 6 -1 17 13 26 31 13
27 22 32 57 35 27 2 42 8 42 16 0 8 16 21 35 30 19 9 35 21 35 26 0 5 17 12
38 16 20 4 43 11 50 17 8 6 12 6 12 -2 0 -6 14 -11 31 -11 19 0 28 4 24 11 -4
6 -9 8 -13 5 -3 -3 -11 2 -18 12 -16 20 -18 78 -4 87 12 8 50 -16 50 -32 0 -7
5 -13 11 -13 5 0 8 4 5 9 -3 5 1 14 9 21 8 7 15 19 15 26 0 17 16 19 25 3 4
-6 14 -8 22 -5 9 4 22 1 29 -5 19 -16 19 15 -1 72 -18 51 -16 136 3 144 8 3
11 13 7 24 -4 14 -1 18 15 17 11 0 25 -8 30 -16 13 -21 12 -70 -1 -70 -12 0
-6 -131 7 -151 4 -7 8 -35 10 -63 1 -28 12 -87 24 -131 26 -98 37 -142 51
-220 13 -67 47 -134 59 -115 5 9 9 9 14 1 4 -6 18 -11 30 -11 13 0 40 -7 59
-15 20 -8 49 -15 64 -15 15 0 41 -7 57 -15 15 -8 44 -15 62 -15 19 0 34 -4 34
-10 0 -5 10 -10 22 -10 12 0 41 -7 65 -16 51 -20 78 -13 70 19 -28 112 -39
144 -87 262 -5 11 -18 47 -30 80 -11 33 -27 74 -34 90 -8 17 -30 80 -49 140
-19 61 -44 137 -56 170 -11 33 -29 87 -40 120 -11 33 -33 100 -50 149 -17 49
-31 96 -31 105 0 9 -6 25 -13 36 -7 11 -26 54 -41 95 -16 41 -33 79 -37 85 -5
5 -9 17 -9 27 0 10 -7 18 -15 18 -8 0 -15 9 -15 20 0 30 -31 153 -41 165 -5 5
-9 16 -9 25 0 9 -9 35 -20 58 -11 22 -20 46 -20 53 0 6 -11 1 -25 -13 -22 -22
-24 -34 -29 -142 -5 -105 -3 -117 11 -112 12 5 14 2 8 -16 -4 -13 -7 -33 -7
-45 0 -18 -6 -23 -27 -23 -14 0 -21 4 -16 8 17 12 5 165 -19 235 -9 26 -16 54
-16 61 0 8 -8 13 -17 12 -10 0 -18 6 -18 14 -3 49 -30 141 -53 174 -50 73 -93
78 -47 6 33 -52 25 -64 -12 -20 -42 49 -75 80 -86 80 -7 0 -6 -5 1 -12 7 -7
12 -22 12 -35 0 -20 -2 -22 -19 -11 -11 7 -28 29 -38 49 -13 28 -21 35 -30 27
-9 -7 -13 -7 -13 0 0 5 -11 20 -25 33 -13 13 -25 30 -25 37 0 6 -7 12 -15 12
-8 0 -15 6 -15 14 0 15 -37 46 -53 46 -5 0 -4 -7 3 -15 18 -21 5 -31 -19 -14
-24 17 -103 166 -92 174 11 6 31 -18 65 -78 17 -30 38 -52 59 -61 18 -7 33
-10 35 -6 5 12 -49 124 -76 157 -95 117 -91 109 -64 115 9 3 27 1 40 -4 21 -7
23 -5 18 14 l-6 23 11 -22 c13 -25 29 -31 29 -11 0 6 7 3 15 -8 8 -10 15 -28
15 -38 0 -11 3 -17 6 -14 9 9 64 -53 64 -72 0 -9 15 -37 33 -61 19 -24 37 -56
41 -71 6 -26 26 -40 26 -18 0 15 -68 140 -101 184 -16 22 -29 44 -29 49 0 5
-9 22 -21 39 -12 16 -19 31 -16 34 6 7 53 -42 74 -77 9 -15 29 -34 44 -43 16
-10 29 -22 29 -28 0 -7 -6 -6 -15 2 -21 18 -19 3 6 -31 11 -16 24 -27 28 -25
4 3 19 -20 34 -50 15 -29 31 -54 37 -54 12 0 -15 73 -40 110 -10 14 -21 41
-25 60 -4 19 -18 55 -31 79 -25 45 -24 73 1 36 80 -119 92 -129 121 -101 22
22 17 61 -11 87 -13 13 -25 32 -25 42 0 9 -4 25 -9 35 -5 9 -20 38 -32 65 -13
26 -27 47 -31 47 -5 0 -8 6 -8 14 0 8 -3 16 -7 18 -5 2 -16 19 -27 40 -10 20
-28 39 -40 43 -17 6 -18 8 -4 12 28 7 126 -84 148 -138 11 -25 30 -40 30 -24
0 22 -35 80 -64 107 -20 18 -36 41 -36 50 0 21 11 23 28 6 16 -16 28 -2 13 16
-10 11 -9 15 5 18 15 3 16 5 3 18 -8 9 -23 26 -34 39 -19 22 -19 23 -1 14 12
-7 31 -7 58 0 l39 10 -29 14 c-37 18 -48 64 -20 87 10 9 25 16 33 16 7 0 17 5
20 10 3 6 -1 10 -9 10 -21 0 -20 6 5 33 18 19 18 22 4 25 -9 2 -14 10 -11 18
3 8 1 14 -5 14 -21 0 -64 42 -64 63 0 15 -7 23 -22 25 -13 2 -23 10 -23 18 0
8 -7 14 -15 14 -8 0 -15 4 -15 9 0 6 24 11 53 13 50 3 51 4 25 15 -34 15 -36
33 -5 33 20 1 21 1 4 11 -10 6 -27 9 -38 6 -15 -4 -19 0 -19 19 0 20 9 29 41
43 40 18 41 19 20 31 -12 6 -29 9 -39 6 -20 -7 -36 3 -45 27 -9 23 -27 22 -27
-3 0 -11 -6 -20 -12 -20 -7 0 -23 -3 -36 -6 -39 -11 -16 20 34 44 25 13 43 18
39 12 -3 -5 1 -10 9 -10 8 0 17 8 20 18 4 10 25 38 48 61 l42 44 -38 -7 c-31
-6 -41 -3 -61 16 -13 13 -34 24 -47 25 -13 1 -52 6 -88 11 -51 7 -70 6 -87 -5
-33 -22 -46 -8 -38 43 6 39 4 44 -13 44 -11 0 -22 -7 -26 -15 -3 -8 -12 -15
-21 -15 -8 0 -15 7 -15 15 0 8 -4 15 -10 15 -5 0 -10 -4 -10 -10 0 -21 -37 -9
-49 17 l-12 26 -15 -28 c-8 -15 -22 -34 -32 -41 -11 -9 -13 -16 -6 -21 6 -5
14 -21 18 -37 11 -44 -42 -91 -58 -51 -6 17 3 47 17 56 6 4 5 14 -2 25 -6 11
-11 13 -11 7 0 -7 -5 -13 -10 -13 -7 0 -8 15 -4 43 4 23 7 58 8 78 1 25 5 35
14 32 13 -6 16 33 6 87 -5 23 -9 28 -16 18 -6 -8 -7 -4 -2 12 5 14 7 40 6 59
-1 19 2 37 8 41 6 4 6 19 -1 43 l-10 37 -77 -41 c-45 -24 -78 -36 -80 -30 -2
6 -24 11 -49 11 -37 0 -44 3 -41 17 2 11 15 20 32 23 41 7 46 30 7 30 -17 0
-31 -5 -31 -11 0 -7 -9 -9 -24 -5 -25 6 -86 -18 -99 -41 -9 -15 -50 -8 -81 13
-11 8 -30 11 -43 8 -26 -7 -32 10 -7 24 9 5 15 22 15 43 0 58 -3 67 -23 61
-21 -5 -24 8 -5 27 10 10 6 11 -18 5 -16 -4 -32 -8 -34 -10 -2 -2 -16 4 -32
13 -23 14 -33 15 -54 5 -14 -7 -38 -12 -53 -12 -15 0 -35 -9 -45 -20 -16 -20
-54 -29 -42 -11 3 5 1 12 -5 16 -5 3 -10 2 -10 -2 0 -17 -40 -32 -70 -27 -38
8 -38 18 -1 34 16 6 39 22 52 36 12 13 27 24 32 24 14 0 67 40 67 52 0 12
-118 2 -134 -12 -6 -4 -38 -8 -71 -7 l-60 2 0 40 c0 36 -2 40 -23 37 -13 -1
-30 -9 -38 -17 -9 -8 -24 -15 -34 -15 -17 0 -18 4 -10 26 12 30 -4 58 -27 50
-8 -3 -11 -1 -8 5 4 6 -3 7 -22 3 -34 -8 -53 -22 -53 -39 0 -21 -53 -37 -91
-28 -28 8 -36 16 -45 48 -6 21 -16 41 -23 43 -22 7 -60 -8 -95 -39 -27 -23
-39 -28 -52 -21 -13 7 -29 2 -64 -19 -26 -16 -56 -29 -66 -29 -10 0 -30 -9
-44 -20 -14 -11 -31 -20 -37 -20 -15 0 -17 16 -3 25 18 11 11 35 -10 35 -11 0
-20 -5 -20 -11 0 -6 -8 -3 -17 7 -12 12 -18 33 -18 63 0 40 -3 45 -27 52 -16
4 -28 3 -28 -2z m-483 -351 c-3 -8 -6 -5 -6 6 -1 11 2 17 5 13 3 -3 4 -12 1
-19z m1879 -113 c-30 -16 -43 -14 -31 4 3 6 18 11 33 11 l27 0 -29 -15z
m-2501 -153 c-3 -3 -11 0 -18 7 -9 10 -8 11 6 5 10 -3 15 -9 12 -12z m-363
-33 c33 -13 45 -39 18 -39 -23 0 -103 18 -143 33 -21 7 -25 12 -15 19 15 10
101 2 140 -13z m-169 -61 c18 -12 41 -31 52 -41 13 -12 28 -16 46 -12 17 4 32
1 42 -9 9 -9 22 -16 31 -16 17 0 31 -18 22 -28 -4 -3 -16 -1 -27 6 -16 10 -20
10 -25 -1 -9 -23 -60 -18 -85 9 -12 13 -27 24 -32 24 -9 0 -139 58 -147 66 -2
3 2 9 10 14 26 17 81 11 113 -12z m-113 -28 c13 -8 13 -10 -2 -10 -9 0 -20 5
-23 10 -8 13 5 13 25 0z m3490 -20 c0 -5 -4 -10 -10 -10 -5 0 -10 5 -10 10 0
6 5 10 10 10 6 0 10 -4 10 -10z m395 -170 c4 -6 -6 -10 -22 -10 -22 0 -25 2
-13 10 19 12 27 12 35 0z m-460 -40 c3 -5 1 -10 -4 -10 -6 0 -11 5 -11 10 0 6
2 10 4 10 3 0 8 -4 11 -10z m449 -51 c-7 -12 -72 -39 -91 -39 -12 0 -13 3 -4
14 10 11 8 17 -6 25 -16 9 -14 11 12 11 17 1 39 5 50 9 21 9 49 -5 39 -20z
m-3690 -18 c28 -30 13 -61 -29 -61 -19 0 -44 5 -57 10 -23 11 -50 54 -40 65 3
3 29 5 57 5 39 0 56 -5 69 -19z m-189 -61 c3 -5 -1 -10 -9 -10 -9 0 -16 5 -16
10 0 6 4 10 9 10 6 0 13 -4 16 -10z m22 -46 c-3 -3 -12 -4 -19 -1 -8 3 -5 6 6
6 11 1 17 -2 13 -5z m4078 -144 c-3 -5 -13 -10 -21 -10 -8 0 -12 5 -9 10 3 6
13 10 21 10 8 0 12 -4 9 -10z m-4365 -109 c0 -5 -13 -12 -30 -16 -16 -4 -32
-11 -35 -16 -4 -5 -14 -9 -23 -9 -13 0 -11 5 8 20 22 17 35 22 73 29 4 0 7 -3
7 -8z m4360 -95 c0 -3 -4 -8 -10 -11 -5 -3 -10 -1 -10 4 0 6 5 11 10 11 6 0
10 -2 10 -4z m60 -26 c0 -5 -2 -10 -4 -10 -3 0 -8 5 -11 10 -3 6 -1 10 4 10 6
0 11 -4 11 -10z m-4320 -26 c0 -2 -16 -8 -36 -13 -38 -11 -104 -3 -84 9 11 7
120 11 120 4z m4037 -16 c-3 -8 -6 -5 -6 6 -1 11 2 17 5 13 3 -3 4 -12 1 -19z
m-10 -40 c-3 -8 -6 -5 -6 6 -1 11 2 17 5 13 3 -3 4 -12 1 -19z m204 -360 c8
-15 8 -18 0 -14 -6 4 -16 16 -22 28 -8 15 -8 18 0 14 6 -4 16 -16 22 -28z
m-202 -39 c3 -11 -1 -10 -19 2 -13 9 -26 22 -29 30 -3 11 1 10 19 -2 13 -9 26
-22 29 -30z m-3202 -215 c-3 -3 -12 -4 -19 -1 -8 3 -5 6 6 6 11 1 17 -2 13 -5z
m387 -34 c26 -22 52 -40 57 -40 5 0 9 -5 9 -11 0 -15 -74 29 -107 63 -39 41
-15 34 41 -12z m-364 11 c0 -5 8 -12 18 -14 13 -4 14 -5 1 -6 -8 0 -24 6 -35
14 -17 13 -17 14 -1 15 9 0 17 -4 17 -9z m75 -32 c-7 -10 -35 -1 -35 11 0 5 9
6 20 3 11 -3 17 -9 15 -14z m3062 -3 c10 -13 25 -33 33 -45 8 -12 20 -19 27
-16 7 2 13 -2 13 -10 0 -8 5 -15 12 -15 6 0 9 -3 5 -6 -3 -3 7 -20 23 -37 26
-28 47 -84 35 -95 -3 -3 -11 8 -17 26 -7 17 -21 36 -32 42 -12 6 -34 33 -51
61 -16 27 -39 56 -51 64 -22 14 -39 55 -24 55 5 0 17 -11 27 -24z m-3052 -31
c39 -13 78 -25 88 -25 9 0 17 -4 17 -10 0 -13 -5 -13 -89 6 -39 9 -71 20 -71
25 0 5 -6 9 -14 9 -8 0 -18 5 -21 10 -10 16 15 12 90 -15z m2969 -15 c8 -17
11 -30 6 -30 -11 0 -26 21 -35 49 -10 32 9 19 29 -19z m-1974 9 c0 -11 -29
-19 -34 -10 -3 5 -3 10 -1 13 8 7 35 5 35 -3z m2083 -50 c10 -11 17 -27 15
-35 -2 -8 -12 1 -26 21 -24 38 -17 47 11 14z m-2086 -41 c-3 -7 -5 -2 -5 12 0
14 2 19 5 13 2 -7 2 -19 0 -25z m2041 -28 c7 -11 9 -20 4 -20 -4 0 -13 9 -20
20 -7 11 -9 20 -4 20 4 0 13 -9 20 -20z m-58 -45 c0 -5 -5 -3 -10 5 -5 8 -10
20 -10 25 0 6 5 3 10 -5 5 -8 10 -19 10 -25z m-180 0 c0 -14 -4 -25 -10 -25
-5 0 -10 11 -10 25 0 14 5 25 10 25 6 0 10 -11 10 -25z m-2487 -2 c-7 -2 -19
-2 -25 0 -7 3 -2 5 12 5 14 0 19 -2 13 -5z m2764 -15 c-3 -8 -6 -5 -6 6 -1 11
2 17 5 13 3 -3 4 -12 1 -19z m-492 -29 c-4 -5 -1 -9 4 -9 6 0 11 4 11 9 0 4
12 6 28 3 15 -3 21 -7 15 -9 -20 -7 -15 -21 16 -52 16 -16 27 -32 24 -35 -4
-3 0 -6 8 -6 8 0 19 -11 26 -25 9 -21 8 -27 -5 -35 -16 -9 -16 -9 1 -10 10 0
17 -8 17 -19 0 -11 37 -58 85 -107 47 -48 83 -90 80 -93 -7 -6 -165 156 -165
168 0 4 -11 18 -25 31 -28 26 -34 53 -10 44 8 -4 15 -1 15 5 0 10 -14 15 -32
12 -5 0 -8 5 -8 13 0 8 -8 17 -18 20 -9 3 -22 16 -27 28 -6 13 -16 22 -22 21
-12 -3 -73 62 -73 77 0 4 14 2 30 -7 17 -8 28 -19 25 -24z m293 -10 c-8 -5 -4
-24 11 -61 16 -41 31 -58 61 -76 22 -12 40 -27 40 -32 0 -4 14 -11 30 -15 17
-4 30 -11 30 -16 0 -15 -16 -11 -65 16 -25 14 -45 22 -45 18 0 -4 -12 5 -27
18 -16 14 -41 34 -58 44 -17 10 -24 20 -17 23 17 5 15 27 -3 42 -9 7 -14 27
-14 49 l2 36 7 -40 c4 -22 8 -32 9 -22 0 9 6 17 12 17 8 0 8 4 -1 15 -6 8 -8
19 -4 26 5 8 12 4 25 -12 12 -16 14 -26 7 -30z m-1438 31 c0 -5 7 -10 16 -10
11 0 14 -5 10 -16 -3 -9 -6 -21 -6 -27 0 -6 -13 3 -30 21 -35 39 -36 42 -10
42 11 0 20 -4 20 -10z m1325 -48 c-15 -16 -16 -15 -4 12 7 15 15 23 17 16 3
-7 -3 -19 -13 -28z m305 -18 c0 -4 -9 1 -20 11 -11 10 -20 23 -20 28 0 6 9 1
20 -11 11 -12 20 -24 20 -28z m170 11 c0 -5 -5 -3 -10 5 -5 8 -10 20 -10 25 0
6 5 3 10 -5 5 -8 10 -19 10 -25z m-107 -66 c40 -48 33 -55 -13 -13 -38 35 -49
62 -33 78 5 4 10 -1 13 -12 3 -11 17 -35 33 -53z m-479 -55 c4 -10 1 -14 -6
-12 -15 5 -23 28 -10 28 5 0 13 -7 16 -16z m420 -70 c3 -8 2 -12 -4 -9 -6 3
-10 10 -10 16 0 14 7 11 14 -7z m600 -309 c3 -8 1 -15 -4 -15 -6 0 -10 7 -10
15 0 8 2 15 4 15 2 0 6 -7 10 -15z m121 -12 c9 -12 10 -25 4 -40 -5 -13 -6
-45 -4 -71 5 -43 4 -44 -5 -14 -18 57 -25 35 -22 -70 5 -148 -3 -203 -34 -223
l-24 -16 5 67 c5 59 4 65 -10 54 -20 -17 -27 2 -21 65 2 28 4 71 5 98 1 35 5
47 16 47 11 0 15 12 15 45 0 48 12 58 30 25 17 -31 29 -23 23 15 -6 38 3 45
22 18z m-4067 -414 c42 -8 59 -15 50 -20 -11 -7 -10 -11 2 -19 13 -8 13 -10
-2 -11 -10 -1 -30 -3 -45 -4 -16 -1 -82 -3 -148 -5 -66 -1 -142 -6 -170 -11
-28 -5 -63 -5 -80 0 l-30 8 38 8 c35 7 37 9 23 23 -14 14 -10 17 37 34 29 10
75 18 102 18 67 -1 125 10 125 24 0 6 8 1 18 -11 11 -15 37 -25 80 -34z m-380
-100 c-12 -7 -24 -7 -35 0 -15 9 -12 10 17 10 29 0 32 -1 18 -10z m362 1 c0
-5 -7 -10 -16 -10 -8 0 -12 5 -9 10 3 6 10 10 16 10 5 0 9 -4 9 -10z m80 -10
c0 -12 -27 -12 -55 0 -16 7 -13 9 18 9 20 1 37 -3 37 -9z m-507 -7 c-7 -2 -19
-2 -25 0 -7 3 -2 5 12 5 14 0 19 -2 13 -5z m577 -3 c13 -8 13 -10 -2 -10 -9 0
-20 5 -23 10 -8 13 5 13 25 0z m-794 -48 c-4 -3 -12 0 -19 7 -9 9 -9 14 3 21
11 7 16 5 18 -6 2 -9 1 -18 -2 -22z m677 -63 c24 9 27 8 27 -9 0 -14 6 -19 19
-17 11 1 19 -2 18 -8 -1 -5 -23 -10 -49 -10 -26 0 -50 -4 -54 -8 -13 -13 -34
-7 -34 10 0 23 32 57 40 43 5 -7 15 -8 33 -1z m427 -45 c0 -8 -4 -12 -10 -9
-5 3 -10 13 -10 21 0 8 5 12 10 9 6 -3 10 -13 10 -21z m-637 -31 c4 -21 9 -53
13 -70 6 -30 4 -33 -17 -33 -28 1 -61 40 -56 67 8 38 27 73 40 73 9 0 17 -15
20 -37z m117 -153 c0 -5 -4 -10 -9 -10 -6 0 -13 5 -16 10 -3 6 1 10 9 10 9 0
16 -4 16 -10z m640 -1270 c0 -5 -4 -10 -10 -10 -5 0 -10 5 -10 10 0 6 5 10 10
10 6 0 10 -4 10 -10z m268 -152 c-12 -36 -28 -59 -28 -41 0 32 14 73 26 73 10
0 11 -7 2 -32z m-297 -85 c2 -28 8 -43 16 -43 7 0 13 5 13 10 0 18 18 11 23
-9 3 -12 20 -24 44 -31 33 -10 44 -20 58 -53 17 -38 19 -39 26 -19 5 12 13 22
19 22 5 0 10 7 10 15 0 8 5 15 11 15 6 0 8 -9 4 -20 -5 -14 -2 -20 9 -20 9 0
16 -4 16 -9 0 -5 15 -15 33 -22 17 -7 35 -14 40 -17 4 -2 7 5 8 15 0 16 1 16
8 -2 8 -19 9 -18 13 5 l5 25 2 -26 c1 -17 8 -28 20 -32 14 -3 18 -11 14 -26
-3 -12 -1 -21 5 -21 7 0 10 22 8 60 -2 33 0 60 4 60 11 0 21 -43 11 -50 -10
-7 -1 -90 9 -90 5 0 10 19 12 43 4 41 4 41 12 12 14 -56 30 -77 68 -92 26 -10
38 -21 38 -34 0 -11 10 -24 23 -29 18 -8 15 -9 -13 -4 -19 4 -41 10 -50 15 -8
4 -42 18 -75 30 -33 13 -75 34 -93 47 -17 12 -56 30 -85 39 -28 8 -60 22 -70
31 -15 13 -20 14 -26 3 -7 -11 -11 -10 -19 4 -8 16 -14 17 -39 6 -17 -7 -41
-9 -55 -6 -16 4 -30 1 -39 -7 -17 -17 -115 -23 -124 -8 -3 5 -15 10 -26 10
-10 0 -19 4 -19 10 0 16 -82 59 -126 66 -35 5 -41 10 -41 30 0 13 3 21 8 19 4
-3 14 3 21 13 17 24 58 47 58 32 0 -5 9 -1 20 10 21 21 60 27 60 10 0 -21 39
-9 63 20 15 17 32 28 40 24 8 -3 17 2 21 12 10 27 25 4 27 -43z m429 -8 c0 -8
-4 -15 -10 -15 -5 0 -10 7 -10 15 0 8 5 15 10 15 6 0 10 -7 10 -15z m-830 -93
c13 -1 27 -7 31 -13 3 -6 9 1 13 15 8 32 26 25 26 -10 0 -14 -6 -24 -15 -24
-8 0 -39 -11 -70 -24 -30 -14 -55 -22 -55 -19 0 4 -6 -2 -14 -12 -8 -11 -19
-16 -30 -12 -9 4 -16 2 -16 -3 0 -6 -19 -10 -42 -9 -31 1 -37 3 -20 7 12 4 28
18 35 32 7 14 22 29 34 35 12 5 26 19 32 32 6 13 15 23 21 23 5 0 10 7 10 15
0 9 6 22 13 29 10 11 13 7 17 -23 4 -29 10 -37 30 -39z m870 17 c0 -5 -4 -9
-10 -9 -5 0 -10 7 -10 16 0 8 5 12 10 9 6 -3 10 -10 10 -16z m60 -9 c0 -5 -2
-10 -4 -10 -3 0 -8 5 -11 10 -3 6 -1 10 4 10 6 0 11 -4 11 -10z m-36 -106 c3
-8 2 -12 -4 -9 -6 3 -10 10 -10 16 0 14 7 11 14 -7z m84 -35 c-3 -8 -7 -3 -11
10 -4 17 -3 21 5 13 5 -5 8 -16 6 -23z m232 21 c0 -5 -2 -10 -4 -10 -3 0 -8 5
-11 10 -3 6 -1 10 4 10 6 0 11 -4 11 -10z m45 -40 c3 -5 1 -10 -4 -10 -6 0
-11 5 -11 10 0 6 2 10 4 10 3 0 8 -4 11 -10z m-142 -43 c-7 -11 -23 12 -23 32
0 11 4 9 14 -4 8 -11 12 -24 9 -28z m-1673 -57 c0 -5 -7 -10 -16 -10 -8 0 -12
5 -9 10 3 6 10 10 16 10 5 0 9 -4 9 -10z m1903 -68 c10 -10 14 -22 10 -25 -11
-12 -23 -8 -23 8 0 8 -4 15 -10 15 -5 0 -10 5 -10 10 0 16 15 12 33 -8z m34
-54 c-3 -7 -5 -2 -5 12 0 14 2 19 5 13 2 -7 2 -19 0 -25z m-2069 -82 c-7 -8
-15 -12 -17 -11 -5 6 10 25 20 25 5 0 4 -6 -3 -14z m3116 -474 c-6 -4 -19 -24
-29 -44 -9 -21 -21 -38 -26 -38 -14 0 -11 20 6 36 8 9 15 24 15 35 0 13 7 19
23 19 12 0 17 -3 11 -8z m-1054 -11 c0 -12 -20 -25 -27 -18 -7 7 6 27 18 27 5
0 9 -4 9 -9z m961 -28 c-8 -15 -10 -15 -11 -2 0 17 10 32 18 25 2 -3 -1 -13
-7 -23z m-926 -20 c-4 -10 -9 -35 -12 -55 -4 -28 -11 -38 -23 -38 -14 0 -18 9
-18 43 -1 33 1 38 9 24 12 -21 29 -13 29 14 0 13 -4 18 -12 13 -7 -4 -8 -3 -4
4 12 20 39 15 31 -5z m-1475 -7 c0 -11 -19 -15 -25 -6 -3 5 1 10 9 10 9 0 16
-2 16 -4z m80 -26 c0 -5 -8 -10 -17 -10 -15 0 -16 2 -3 10 19 12 20 12 20 0z
m1327 -27 c-3 -10 -5 -4 -5 12 0 17 2 24 5 18 2 -7 2 -21 0 -30z m108 7 c9
-18 11 -30 5 -30 -9 0 -30 40 -30 56 0 12 11 1 25 -26z m730 -19 c-9 -42 -24
-49 -23 -11 1 21 4 27 9 18 6 -9 9 -6 9 11 0 13 3 22 6 18 3 -3 3 -19 -1 -36z
m-2287 16 c-18 -17 -62 -21 -46 -3 6 6 22 13 35 14 20 2 22 0 11 -11z m1729
-19 c-3 -8 -6 -5 -6 6 -1 11 2 17 5 13 3 -3 4 -12 1 -19z m-1632 2 c-3 -5 -13
-10 -21 -10 -8 0 -12 5 -9 10 3 6 13 10 21 10 8 0 12 -4 9 -10z m-135 -30 c0
-5 -5 -10 -11 -10 -5 0 -7 5 -4 10 3 6 8 10 11 10 2 0 4 -4 4 -10z m1424 -39
c-10 -11 -21 -18 -26 -15 -5 3 2 16 14 29 27 28 37 16 12 -14z m346 -14 c0
-24 -3 -28 -10 -17 -13 20 -13 63 0 55 6 -3 10 -21 10 -38z m433 23 c-3 -11
-7 -20 -9 -20 -2 0 -4 9 -4 20 0 11 4 20 9 20 5 0 7 -9 4 -20z m-683 -6 c0 -8
-4 -12 -10 -9 -5 3 -10 10 -10 16 0 5 5 9 10 9 6 0 10 -7 10 -16z m399 -26
c-1 -31 -1 -31 -8 -8 -5 14 -6 28 -4 33 9 15 13 6 12 -25z m-449 7 c0 -8 -7
-15 -15 -15 -16 0 -20 12 -8 23 11 12 23 8 23 -8z m920 -9 c0 -8 -4 -18 -10
-21 -5 -3 -10 3 -10 14 0 12 5 21 10 21 6 0 10 -6 10 -14z m-930 -31 c0 -8 -4
-15 -10 -15 -5 0 -7 7 -4 15 4 8 8 15 10 15 2 0 4 -7 4 -15z m468 -42 c0 -21
-2 -23 -10 -9 -5 9 -6 21 -3 26 10 16 13 12 13 -17z m-518 -19 c0 -8 -4 -14
-10 -14 -5 0 -10 9 -10 21 0 11 5 17 10 14 6 -3 10 -13 10 -21z m124 14 c12
-39 15 -68 7 -68 -5 0 -13 18 -19 40 -6 24 -6 40 -1 40 5 0 11 -6 13 -12z
m246 -8 c0 -5 -7 -10 -15 -10 -9 0 -15 -9 -15 -21 0 -31 -27 -54 -45 -39 -17
14 -20 56 -5 65 6 4 10 -7 10 -24 0 -17 5 -31 10 -31 6 0 10 9 10 19 0 20 25
51 41 51 5 0 9 -4 9 -10z m197 -22 c-3 -8 -6 -5 -6 6 -1 11 2 17 5 13 3 -3 4
-12 1 -19z m-533 -14 c3 -8 2 -12 -4 -9 -6 3 -10 10 -10 16 0 14 7 11 14 -7z
m-1158 -10 c-3 -9 -6 -18 -6 -20 0 -2 -4 -4 -9 -4 -5 0 -7 9 -4 20 3 11 10 20
15 20 6 0 7 -7 4 -16z m37 -24 c-7 -28 -13 -25 -13 6 0 14 4 23 9 20 5 -3 7
-15 4 -26z m1067 0 c0 -6 -9 -5 -20 2 -11 7 -20 16 -20 21 0 4 9 3 20 -3 11
-6 20 -15 20 -20z m-930 6 c0 -3 -4 -8 -10 -11 -5 -3 -10 -1 -10 4 0 6 5 11
10 11 6 0 10 -2 10 -4z m429 -40 c-9 -8 -10 -7 -5 7 3 10 7 24 7 30 1 7 3 4 6
-7 3 -10 -1 -23 -8 -30z m318 22 c-3 -8 -6 -5 -6 6 -1 11 2 17 5 13 3 -3 4
-12 1 -19z m273 3 c0 -16 -14 -20 -27 -10 -19 17 -16 28 7 22 11 -3 20 -9 20
-12z m-1238 -35 c3 -15 0 -27 -8 -30 -10 -4 -14 4 -14 30 0 39 15 39 22 0z
m-117 15 c3 -5 1 -12 -5 -16 -5 -3 -10 1 -10 9 0 18 6 21 15 7z m487 -13 c-7
-7 -12 -8 -12 -2 0 14 12 26 19 19 2 -3 -1 -11 -7 -17z m548 3 c0 -6 -4 -13
-10 -16 -5 -3 -10 1 -10 9 0 9 5 16 10 16 6 0 10 -4 10 -9z m-597 -22 c4 -16
3 -18 -9 -8 -7 6 -11 15 -8 20 8 13 11 11 17 -12z m927 2 c0 -4 -3 -11 -7 -14
-8 -9 -34 13 -28 24 6 9 35 1 35 -10z m80 9 c0 -5 -4 -10 -10 -10 -5 0 -10 5
-10 10 0 6 5 10 10 10 6 0 10 -4 10 -10z m-1593 -16 c-3 -3 -12 -4 -19 -1 -8
3 -5 6 6 6 11 1 17 -2 13 -5z m315 -29 c-5 -39 -22 -59 -22 -25 0 19 16 60 23
60 2 0 1 -16 -1 -35z m238 27 c0 -13 -12 -22 -22 -16 -10 6 -1 24 13 24 5 0 9
-4 9 -8z m107 -14 c-3 -8 -6 -5 -6 6 -1 11 2 17 5 13 3 -3 4 -12 1 -19z m533
12 c0 -5 -5 -10 -11 -10 -5 0 -7 5 -4 10 3 6 8 10 11 10 2 0 4 -4 4 -10z m160
1 c0 -6 -4 -13 -10 -16 -5 -3 -10 1 -10 9 0 9 5 16 10 16 6 0 10 -4 10 -9z
m-633 -23 c-3 -8 -6 -5 -6 6 -1 11 2 17 5 13 3 -3 4 -12 1 -19z m763 0 c0 -19
-2 -20 -10 -8 -13 19 -13 30 0 30 6 0 10 -10 10 -22z m-263 -35 c-3 -10 -5 -4
-5 12 0 17 2 24 5 18 2 -7 2 -21 0 -30z m-1044 -8 c-3 -9 -8 -14 -10 -11 -3 3
-2 9 2 15 9 16 15 13 8 -4z m567 6 c0 -6 -4 -13 -10 -16 -5 -3 -10 1 -10 9 0
9 5 16 10 16 6 0 10 -4 10 -9z m1360 -371 c0 -5 -5 -10 -11 -10 -5 0 -7 5 -4
10 3 6 8 10 11 10 2 0 4 -4 4 -10z m-60 -75 c0 -27 -6 -30 -29 -16 -12 8 -12
11 0 25 20 22 29 20 29 -9z m-180 -305 c0 -5 -4 -10 -10 -10 -5 0 -10 5 -10
10 0 6 5 10 10 10 6 0 10 -4 10 -10z m-22 -38 c2 -7 -3 -12 -12 -12 -9 0 -16
7 -16 16 0 17 22 14 28 -4z m-1258 -7 c0 -8 -7 -15 -15 -15 -16 0 -20 12 -8
23 11 12 23 8 23 -8z m1220 -15 c0 -5 -4 -10 -10 -10 -5 0 -10 5 -10 10 0 6 5
10 10 10 6 0 10 -4 10 -10z m-675 -216 c17 -1 31 -3 33 -3 2 -1 -3 -8 -12 -16
-19 -19 -53 -19 -72 -1 -20 21 -18 40 4 30 9 -4 31 -9 47 -10z"/>
<path d="M4710 9106 c0 -17 16 -30 23 -19 3 5 -1 14 -9 21 -12 10 -14 10 -14
-2z"/>
<path d="M5370 9781 c0 -12 26 -32 33 -25 9 10 -4 34 -19 34 -8 0 -14 -4 -14
-9z"/>
<path d="M4928 9511 c4 -11 16 -30 27 -43 11 -14 27 -38 35 -54 19 -35 50 -45
50 -16 0 11 8 23 18 27 15 6 15 8 -5 24 -16 14 -19 21 -10 30 8 8 7 11 -6 11
-10 0 -30 6 -45 14 -15 7 -37 17 -49 20 -20 6 -22 5 -15 -13z"/>
<path d="M8330 9186 c0 -8 -3 -22 -6 -30 -4 -12 -2 -15 9 -10 20 7 29 54 11
54 -8 0 -14 -6 -14 -14z"/>
<path d="M4275 9050 c-17 -7 -15 -9 12 -9 17 -1 34 3 37 7 6 11 -24 12 -49 2z"/>
<path d="M8650 8610 c0 -5 5 -10 10 -10 6 0 10 5 10 10 0 6 -4 10 -10 10 -5 0
-10 -4 -10 -10z"/>
<path d="M3900 8440 c-8 -5 -10 -10 -5 -10 6 0 17 5 25 10 8 5 11 10 5 10 -5
0 -17 -5 -25 -10z"/>
<path d="M3771 8174 c-28 -35 -27 -52 2 -28 25 22 37 36 37 47 0 15 -19 6 -39
-19z"/>
<path d="M8700 8160 c20 -13 33 -13 25 0 -3 6 -14 10 -23 10 -15 0 -15 -2 -2
-10z"/>
<path d="M8700 8104 c8 -8 22 -20 32 -25 19 -10 19 -9 3 15 -10 14 -24 26 -32
26 -13 0 -13 -3 -3 -16z"/>
<path d="M8540 7663 c0 -4 5 -15 10 -23 8 -13 10 -13 10 2 0 9 -4 20 -10 23
-5 3 -10 3 -10 -2z"/>
<path d="M8875 7644 c2 -10 4 -23 4 -28 1 -6 6 -5 13 2 10 10 9 16 -4 29 -15
15 -16 15 -13 -3z"/>
<path d="M8720 7600 c0 -6 4 -10 9 -10 6 0 9 -22 8 -49 -2 -46 -3 -48 -20 -34
-24 23 -31 11 -17 -29 8 -22 20 -34 32 -35 13 -1 18 3 14 13 -7 18 -1 18 19
-2 20 -20 33 -10 15 12 -11 12 -11 20 -2 35 7 10 8 19 4 19 -5 0 -14 18 -21
39 -10 35 -41 65 -41 41z"/>
<path d="M8641 7584 c0 -11 3 -14 6 -6 3 7 2 16 -1 19 -3 4 -6 -2 -5 -13z"/>
<path d="M6040 7530 c0 -5 -17 -10 -37 -11 -29 0 -33 -2 -18 -8 24 -10 67 1
73 17 2 7 -1 12 -7 12 -6 0 -11 -4 -11 -10z"/>
<path d="M6145 7360 c-3 -5 -1 -10 4 -10 6 0 11 5 11 10 0 6 -2 10 -4 10 -3 0
-8 -4 -11 -10z"/>
<path d="M8986 7294 c-3 -9 -6 -23 -6 -32 0 -14 2 -14 9 -3 5 8 14 10 22 6 9
-6 11 -3 6 9 -4 10 -7 22 -7 27 0 15 -17 10 -24 -7z"/>
<path d="M9031 7224 c0 -11 3 -14 6 -6 3 7 2 16 -1 19 -3 4 -6 -2 -5 -13z"/>
<path d="M6427 7199 c7 -7 15 -10 18 -7 3 3 -2 9 -12 12 -14 6 -15 5 -6 -5z"/>
<path d="M6848 7184 c13 -9 26 -13 30 -9 8 8 -17 25 -38 25 -9 0 -6 -6 8 -16z"/>
<path d="M7443 7125 c0 -8 4 -15 7 -15 4 0 13 7 20 15 10 12 9 15 -7 15 -11 0
-20 -7 -20 -15z"/>
<path d="M5270 6675 c0 -5 5 -17 10 -25 5 -8 10 -10 10 -5 0 6 -5 17 -10 25
-5 8 -10 11 -10 5z"/>
<path d="M6375 6620 c-19 -8 -19 -9 3 -9 12 -1 22 4 22 9 0 6 -1 10 -2 9 -2 0
-12 -4 -23 -9z"/>
<path d="M6310 6592 c-37 -17 -60 -38 -60 -55 0 -10 -4 -16 -9 -12 -5 3 -12
-3 -14 -12 -4 -14 -5 -13 -6 5 -1 27 -21 30 -21 2 0 -28 -20 -25 -21 3 -1 18
-2 18 -6 4 -5 -18 -5 -18 -18 0 -11 15 -17 16 -33 6 -17 -10 -21 -9 -25 6 -7
29 -97 38 -97 10 0 -5 5 -9 10 -9 18 0 10 -18 -10 -23 -25 -6 -29 -64 -5 -73
8 -4 12 -11 9 -16 -4 -6 0 -14 7 -19 12 -7 11 -9 -1 -9 -12 -1 -11 -4 4 -15
10 -7 19 -29 21 -47 2 -29 6 -33 33 -36 42 -4 60 -27 33 -42 -23 -12 -28 -30
-8 -30 7 0 23 -7 35 -15 20 -15 21 -18 7 -38 -8 -12 -21 -41 -29 -64 -14 -39
-13 -44 4 -66 13 -17 16 -27 9 -34 -17 -17 9 -27 28 -12 13 12 15 8 13 -31 -4
-65 -4 -65 53 -69 110 -9 152 -7 152 9 0 12 -12 14 -57 12 -37 -3 -58 0 -58 7
0 6 9 11 20 11 36 0 69 23 80 54 15 46 111 129 128 111 4 -4 2 -9 -4 -12 -16
-5 1 -125 25 -172 12 -22 29 -42 40 -46 40 -12 219 -9 235 4 25 21 76 116 76
143 0 13 -5 29 -12 36 -9 9 -9 15 -1 23 11 11 28 6 93 -32 41 -23 111 -102
101 -112 -15 -15 11 -35 54 -43 24 -4 40 -3 44 5 6 8 18 7 46 -5 29 -12 40
-13 45 -4 6 10 16 10 45 0 26 -8 40 -9 47 -2 8 8 3 13 -15 18 -15 3 -24 10
-21 15 3 5 0 9 -5 9 -21 0 -11 28 12 34 l22 6 -22 15 c-32 22 -83 75 -83 86 0
5 -4 9 -9 9 -5 0 -23 14 -39 30 -17 17 -37 30 -46 30 -8 0 -26 15 -40 33 -14
17 -26 26 -26 20 0 -7 -4 -13 -10 -13 -22 0 -8 19 20 29 20 7 39 7 56 1 14 -6
30 -7 35 -4 18 11 107 -8 128 -27 11 -10 27 -19 36 -19 8 0 15 -5 15 -10 0
-18 52 -33 61 -18 6 10 15 10 38 1 29 -10 30 -10 21 8 -6 10 -15 19 -20 19 -5
0 -8 13 -7 30 1 16 8 30 15 30 25 0 11 26 -40 72 -29 27 -57 48 -61 48 -5 0
-20 9 -35 20 -18 15 -28 17 -33 9 -9 -15 -42 10 -89 67 -38 46 -125 92 -134
71 -3 -9 -5 -8 -5 1 -1 6 -9 12 -18 12 -9 0 -26 8 -37 19 -25 22 -72 39 -62
22 4 -7 -1 -11 -13 -11 -11 0 -23 5 -26 10 -3 6 2 10 12 10 12 0 14 3 6 8 -16
10 -93 2 -93 -9 0 -6 -8 -5 -19 1 -14 7 -28 7 -47 -1 -16 -5 -39 -8 -51 -4
-105 26 -298 23 -349 -5 -37 -21 -47 -14 -14 10 32 23 25 38 -10 22z m613
-276 c33 -15 36 -19 23 -29 -13 -11 -13 -14 -1 -31 11 -15 15 -16 15 -5 0 12
11 14 68 8 37 -4 81 -12 97 -17 l30 -9 -33 -5 c-20 -3 -37 0 -43 9 -14 16 -51
17 -67 1 -15 -15 -209 19 -216 38 -3 8 0 11 10 7 8 -3 14 1 14 11 0 12 10 16
38 17 20 1 29 3 19 6 -9 2 -15 9 -11 14 3 5 8 8 12 6 4 -2 24 -12 45 -21z
m132 14 c3 -5 -1 -10 -10 -10 -9 0 -13 5 -10 10 3 6 8 10 10 10 2 0 7 -4 10
-10z m-262 -7 c-7 -2 -21 -2 -30 0 -10 3 -4 5 12 5 17 0 24 -2 18 -5z m-44
-32 c19 -10 29 -21 24 -24 -16 -10 -73 13 -73 29 0 18 7 17 49 -5z m-94 -1 c3
-5 1 -10 -4 -10 -6 0 -11 5 -11 10 0 6 2 10 4 10 3 0 8 -4 11 -10z m515 0 c0
-5 -2 -10 -4 -10 -3 0 -8 5 -11 10 -3 6 -1 10 4 10 6 0 11 -4 11 -10z m-163
-6 c-3 -3 -12 -4 -19 -1 -8 3 -5 6 6 6 11 1 17 -2 13 -5z m-377 -54 c0 -5 -4
-10 -10 -10 -5 0 -10 5 -10 10 0 6 5 10 10 10 6 0 10 -4 10 -10z m30 0 c0 -5
-4 -10 -10 -10 -5 0 -10 5 -10 10 0 6 5 10 10 10 6 0 10 -4 10 -10z m115 -15
c14 -3 23 -10 20 -14 -3 -5 -13 -8 -23 -6 -60 12 -72 16 -72 25 0 6 11 8 25 5
14 -3 36 -7 50 -10z m531 -4 c13 -10 21 -21 18 -24 -9 -8 -65 24 -59 34 8 13
14 12 41 -10z m-444 -33 c-9 -9 -15 -9 -24 0 -9 9 -7 12 12 12 19 0 21 -3 12
-12z m523 2 c3 -5 2 -10 -4 -10 -5 0 -13 5 -16 10 -3 6 -2 10 4 10 5 0 13 -4
16 -10z m-755 -90 c0 -6 11 -8 25 -4 21 5 25 3 25 -15 0 -17 -6 -21 -29 -21
-17 0 -33 -4 -36 -10 -9 -14 -35 -12 -35 3 0 15 31 57 43 57 4 0 7 -5 7 -10z
m159 -41 c-29 -18 -44 -9 -19 11 15 11 26 15 29 8 2 -6 -3 -14 -10 -19z m-72
5 c-3 -3 -12 -4 -19 -1 -8 3 -5 6 6 6 11 1 17 -2 13 -5z"/>
<path d="M6852 6291 c-11 -7 -11 -9 2 -14 20 -8 48 2 40 14 -7 11 -25 11 -42
0z"/>
<path d="M5490 6535 c0 -8 7 -15 16 -15 14 0 14 3 4 15 -7 8 -14 15 -16 15 -2
0 -4 -7 -4 -15z"/>
<path d="M7460 6100 c0 -5 7 -10 15 -10 8 0 15 5 15 10 0 6 -7 10 -15 10 -8 0
-15 -4 -15 -10z"/>
<path d="M5300 5992 c0 -5 -21 -10 -47 -11 -80 -3 -75 -18 9 -26 55 -5 56 -5
54 20 -1 22 -16 38 -16 17z"/>
<path d="M4960 5950 c0 -5 5 -10 11 -10 5 0 7 5 4 10 -3 6 -8 10 -11 10 -2 0
-4 -4 -4 -10z"/>
<path d="M4976 5924 c-11 -7 -17 -16 -15 -19 7 -7 49 6 49 16 0 15 -15 17 -34
3z"/>
<path d="M6525 5830 c-3 -5 -1 -10 4 -10 6 0 11 5 11 10 0 6 -2 10 -4 10 -3 0
-8 -4 -11 -10z"/>
<path d="M6560 5820 c0 -5 5 -10 11 -10 5 0 7 5 4 10 -3 6 -8 10 -11 10 -2 0
-4 -4 -4 -10z"/>
<path d="M6736 5823 c-11 -11 -6 -23 9 -23 8 0 15 4 15 9 0 13 -16 22 -24 14z"/>
<path d="M6680 5810 c0 -5 6 -10 14 -10 8 0 18 5 21 10 3 6 -3 10 -14 10 -12
0 -21 -4 -21 -10z"/>
<path d="M8463 5763 c-18 -7 -16 -43 2 -43 9 0 15 9 15 25 0 14 -1 25 -2 24
-2 0 -9 -3 -15 -6z"/>
<path d="M8346 5519 c-40 -118 -30 -190 25 -181 10 2 38 -13 63 -32 52 -40 88
-54 94 -37 2 6 10 11 18 11 18 0 18 14 0 29 -7 6 -19 39 -26 72 -17 81 -65
135 -127 145 -32 5 -44 3 -47 -7z"/>
<path d="M8140 5366 c0 -2 7 -7 16 -10 8 -3 12 -2 9 4 -6 10 -25 14 -25 6z"/>
<path d="M8145 5240 c-8 -13 13 -52 25 -45 9 6 2 43 -11 50 -4 3 -10 1 -14 -5z"/>
<path d="M8120 5169 c0 -5 5 -7 10 -4 6 3 10 8 10 11 0 2 -4 4 -10 4 -5 0 -10
-5 -10 -11z"/>
<path d="M8118 5123 c7 -3 16 -2 19 1 4 3 -2 6 -13 5 -11 0 -14 -3 -6 -6z"/>
<path d="M8712 4625 c-6 -8 -22 -29 -35 -47 -74 -106 -96 -132 -142 -161 -27
-17 -52 -34 -55 -37 -3 -3 -14 -10 -24 -15 -29 -17 -30 -62 0 -81 13 -9 24
-23 24 -30 0 -8 4 -14 9 -14 13 0 71 -56 71 -69 0 -6 4 -11 9 -11 10 0 71 -55
71 -64 0 -4 5 -12 10 -19 6 -7 17 -21 24 -32 11 -15 17 -17 28 -7 12 9 19 8
36 -8 12 -11 19 -26 16 -33 -6 -17 16 -36 47 -42 26 -5 39 -22 32 -41 -2 -7 7
-20 21 -29 14 -10 26 -24 26 -31 0 -8 4 -14 9 -14 14 0 71 -57 71 -70 0 -7 17
-27 37 -45 34 -29 37 -36 36 -81 -1 -27 1 -39 4 -26 4 18 11 22 44 22 39 0 39
0 39 -40 0 -37 2 -40 20 -30 15 8 18 17 14 40 -6 25 -3 30 20 36 14 3 26 12
26 20 0 10 12 14 40 14 22 0 40 -4 40 -10 0 -5 18 -10 40 -10 22 0 40 5 40 10
0 6 17 10 39 10 30 0 40 4 44 20 4 15 14 20 41 20 25 0 36 4 36 15 0 11 11 15
35 15 28 0 38 -5 44 -22 l8 -22 27 27 c28 28 46 35 46 17 0 -5 18 -10 40 -10
22 0 40 5 40 10 0 6 18 10 40 10 22 0 40 -4 40 -8 0 -5 18 -15 40 -22 22 -7
40 -19 40 -26 0 -7 8 -15 18 -17 16 -4 16 -5 0 -6 -28 -2 -21 -16 15 -29 18
-7 36 -12 40 -12 4 0 7 159 7 354 l0 354 -27 10 c-16 6 -66 19 -113 27 -47 9
-92 19 -100 22 -39 16 -217 53 -350 73 -30 4 -73 13 -95 19 -22 6 -56 11 -77
11 -20 0 -38 4 -40 10 -1 5 -27 14 -57 20 -30 5 -68 17 -84 25 -17 8 -39 15
-49 15 -10 0 -32 7 -47 15 -87 44 -221 61 -249 30z"/>
<path d="M5890 4505 c0 -17 2 -18 24 -9 18 7 12 24 -10 24 -8 0 -14 -7 -14
-15z"/>
<path d="M8182 4373 c-6 -38 -16 -93 -22 -123 -12 -58 -20 -103 -44 -238 -8
-46 -17 -91 -20 -100 -11 -34 -16 -102 -8 -102 26 0 72 107 72 167 0 13 5 23
10 23 6 0 10 11 10 25 0 38 28 136 43 149 7 6 21 38 31 71 10 33 24 73 33 90
15 30 15 30 -29 67 -23 21 -48 38 -54 38 -6 0 -16 -30 -22 -67z"/>
<path d="M8390 4335 c0 -8 9 -15 20 -15 11 0 20 2 20 5 0 2 -9 9 -20 15 -16 9
-20 8 -20 -5z"/>
<path d="M4487 4143 c-7 -14 -18 -63 -13 -63 4 0 36 59 36 67 0 6 -19 3 -23
-4z"/>
<path d="M6628 3972 c-7 -26 8 -37 39 -29 15 4 14 5 -4 6 -14 1 -23 9 -25 24
l-3 22 -7 -23z"/>
<path d="M6580 3915 c-7 -8 -9 -15 -6 -15 4 0 14 7 22 15 9 8 11 15 6 15 -5 0
-15 -7 -22 -15z"/>
<path d="M6620 3881 c0 -6 5 -13 10 -16 6 -4 8 -10 6 -14 -3 -4 1 -8 9 -8 19
0 19 14 1 33 -17 16 -26 18 -26 5z"/>
<path d="M7224 3874 c3 -9 6 -21 7 -27 0 -7 4 -3 9 8 13 29 12 35 -6 35 -11 0
-14 -5 -10 -16z"/>
<path d="M5313 3838 c1 -7 -5 -13 -13 -13 -35 -2 -110 -28 -110 -38 0 -5 -8
-2 -19 7 -14 13 -34 16 -87 14 -63 -3 -69 -5 -85 -33 -28 -49 -22 -84 9 -53
10 10 14 8 19 -10 4 -15 16 -25 34 -29 17 -3 26 -10 22 -16 -4 -6 0 -8 11 -4
10 4 24 1 32 -8 10 -9 25 -13 39 -9 21 5 24 3 22 -22 -3 -43 29 -54 150 -50
64 3 103 1 105 -6 2 -6 27 -11 56 -11 34 -1 53 -5 57 -15 3 -8 10 -10 17 -5 7
4 25 8 40 9 14 1 41 9 59 18 17 9 45 16 61 16 17 0 28 5 28 13 0 9 10 12 30 9
18 -3 30 0 30 7 0 6 9 11 19 11 14 0 20 9 23 34 3 29 -1 37 -29 56 -18 12 -45
23 -60 24 -33 2 -93 27 -93 39 0 5 -4 5 -10 2 -5 -3 -10 -1 -10 5 0 6 -4 8
-10 5 -5 -3 -10 -1 -10 4 0 6 -3 10 -7 10 -21 -3 -33 2 -27 12 4 7 -1 7 -16
-1 -25 -13 -90 1 -121 27 -22 18 -29 16 -29 -7 0 -21 -15 -27 -25 -10 -9 15
-31 12 -49 -6 -13 -12 -16 -12 -16 -2 0 8 4 18 9 24 6 5 -1 10 -19 11 -18 1
-29 -2 -27 -9z"/>
<path d="M7400 3820 c0 -5 5 -10 10 -10 6 0 10 5 10 10 0 6 -4 10 -10 10 -5 0
-10 -4 -10 -10z"/>
<path d="M6640 3805 c0 -9 5 -15 11 -13 6 2 11 8 11 13 0 5 -5 11 -11 13 -6 2
-11 -4 -11 -13z"/>
<path d="M7509 3788 c-6 -21 -5 -39 2 -44 5 -3 9 6 9 20 0 21 -7 36 -11 24z"/>
<path d="M7602 3765 c0 -16 2 -22 5 -12 2 9 2 23 0 30 -3 6 -5 -1 -5 -18z"/>
<path d="M7400 3759 c0 -5 5 -7 10 -4 6 3 10 8 10 11 0 2 -4 4 -10 4 -5 0 -10
-5 -10 -11z"/>
<path d="M7592 3690 c0 -14 2 -19 5 -12 2 6 2 18 0 25 -3 6 -5 1 -5 -13z"/>
<path d="M7057 3685 c-4 -8 -3 -15 2 -15 5 0 12 -16 15 -35 4 -19 11 -37 17
-41 14 -8 0 65 -16 89 -11 16 -13 16 -18 2z"/>
<path d="M7515 3657 c-12 -34 -11 -42 4 -42 16 0 26 50 12 59 -5 3 -12 -4 -16
-17z"/>
<path d="M4730 3650 c-8 -5 -11 -12 -8 -15 4 -4 17 0 30 9 24 17 5 23 -22 6z"/>
<path d="M6545 3640 c10 -11 20 -20 23 -20 3 0 -3 9 -13 20 -10 11 -20 20 -23
20 -3 0 3 -9 13 -20z"/>
<path d="M7040 3648 c0 -9 -5 -18 -11 -20 -6 -2 -7 -12 -1 -28 9 -23 9 -22 16
14 4 21 5 41 2 44 -3 3 -6 -2 -6 -10z"/>
<path d="M7300 3651 c0 -6 5 -13 10 -16 6 -3 10 1 10 9 0 9 -4 16 -10 16 -5 0
-10 -4 -10 -9z"/>
<path d="M6506 3615 c4 -8 10 -15 15 -15 4 0 6 7 3 15 -4 8 -10 15 -15 15 -4
0 -6 -7 -3 -15z"/>
<path d="M7440 3605 c0 -8 4 -15 10 -15 5 0 7 7 4 15 -4 8 -8 15 -10 15 -2 0
-4 -7 -4 -15z"/>
<path d="M7051 3558 c1 -37 2 -39 9 -18 12 36 12 60 0 60 -5 0 -10 -19 -9 -42z"/>
<path d="M7281 3584 c0 -11 3 -14 6 -6 3 7 2 16 -1 19 -3 4 -6 -2 -5 -13z"/>
<path d="M7345 3590 c3 -5 8 -10 11 -10 2 0 4 5 4 10 0 6 -5 10 -11 10 -5 0
-7 -4 -4 -10z"/>
<path d="M7505 3571 c-6 -30 -1 -51 13 -51 9 0 8 67 0 76 -4 3 -9 -8 -13 -25z"/>
<path d="M7576 3575 c-9 -35 -1 -43 14 -15 8 14 8 26 2 32 -6 6 -12 0 -16 -17z"/>
<path d="M7620 3580 c0 -11 -4 -20 -10 -20 -5 0 -10 -4 -10 -9 0 -4 10 -8 23
-7 16 1 23 8 25 29 2 19 -1 27 -12 27 -9 0 -16 -9 -16 -20z"/>
<path d="M6477 3565 c-8 -19 2 -45 17 -46 6 0 3 -4 -7 -7 -16 -7 -16 -9 -2
-30 20 -28 27 -28 44 0 11 18 11 23 -2 33 -8 6 -17 22 -19 35 -4 28 -23 37
-31 15z"/>
<path d="M7440 3535 c0 -10 10 -15 27 -15 26 0 26 1 7 15 -25 19 -34 19 -34 0z"/>
<path d="M7330 3530 c0 -5 5 -10 11 -10 5 0 7 5 4 10 -3 6 -8 10 -11 10 -2 0
-4 -4 -4 -10z"/>
<path d="M7215 3510 c3 -5 8 -10 11 -10 2 0 4 5 4 10 0 6 -5 10 -11 10 -5 0
-7 -4 -4 -10z"/>
<path d="M7611 3501 c-9 -16 -10 -26 -2 -34 13 -13 25 12 19 40 -3 16 -5 15
-17 -6z"/>
<path d="M7266 3495 c-3 -8 -9 -15 -13 -14 -4 1 -14 1 -20 0 -18 -1 -16 -71 2
-95 14 -18 15 -18 25 8 13 34 13 39 0 31 -16 -10 -12 15 5 31 8 9 15 24 15 35
0 23 -6 25 -14 4z"/>
<path d="M5103 3473 c9 -2 25 -2 35 0 9 3 1 5 -18 5 -19 0 -27 -2 -17 -5z"/>
<path d="M6400 3460 c0 -5 5 -10 10 -10 6 0 10 5 10 10 0 6 -4 10 -10 10 -5 0
-10 -4 -10 -10z"/>
<path d="M6725 3450 c-3 -5 -1 -10 4 -10 6 0 11 5 11 10 0 6 -2 10 -4 10 -3 0
-8 -4 -11 -10z"/>
<path d="M6990 3425 c0 -8 2 -15 4 -15 2 0 6 7 10 15 3 8 1 15 -4 15 -6 0 -10
-7 -10 -15z"/>
<path d="M6740 3410 c0 -5 5 -10 11 -10 5 0 7 5 4 10 -3 6 -8 10 -11 10 -2 0
-4 -4 -4 -10z"/>
<path d="M7212 3355 c0 -16 2 -22 5 -12 2 9 2 23 0 30 -3 6 -5 -1 -5 -18z"/>
<path d="M7041 3334 c0 -11 3 -14 6 -6 3 7 2 16 -1 19 -3 4 -6 -2 -5 -13z"/>
<path d="M6801 3324 c0 -11 3 -14 6 -6 3 7 2 16 -1 19 -3 4 -6 -2 -5 -13z"/>
<path d="M5288 3303 c7 -3 16 -2 19 1 4 3 -2 6 -13 5 -11 0 -14 -3 -6 -6z"/>
<path d="M7010 3250 c0 -5 5 -10 10 -10 6 0 10 5 10 10 0 6 -4 10 -10 10 -5 0
-10 -4 -10 -10z"/>
<path d="M6140 3235 c7 -8 16 -12 21 -9 13 8 1 24 -18 24 -13 0 -13 -3 -3 -15z"/>
<path d="M5360 3210 c0 -16 -5 -30 -11 -30 -5 0 -7 -5 -4 -10 4 -6 12 -7 22
-1 9 4 25 6 37 4 18 -4 17 -2 -4 9 -17 10 -24 22 -23 36 2 12 -2 22 -7 22 -6
0 -10 -13 -10 -30z"/>
<path d="M6220 3224 c-11 -12 -11 -18 2 -30 13 -14 15 -12 16 15 1 35 -1 37
-18 15z"/>
<path d="M6951 3224 c0 -11 3 -14 6 -6 3 7 2 16 -1 19 -3 4 -6 -2 -5 -13z"/>
<path d="M5246 3214 c-17 -12 -17 -14 -4 -14 9 0 20 5 23 11 11 17 2 18 -19 3z"/>
<path d="M5840 3220 c0 -5 5 -10 10 -10 6 0 10 5 10 10 0 6 -4 10 -10 10 -5 0
-10 -4 -10 -10z"/>
<path d="M5290 3185 c-7 -8 -8 -15 -2 -15 5 0 15 7 22 15 7 8 8 15 2 15 -5 0
-15 -7 -22 -15z"/>
<path d="M5935 3182 c12 -9 24 -25 28 -36 5 -13 13 -17 30 -12 12 3 27 6 33 6
15 0 24 34 14 50 -11 18 -46 7 -42 -13 2 -9 -3 -17 -11 -17 -8 0 -14 7 -13 16
1 11 -9 17 -29 20 -29 3 -30 3 -10 -14z m96 -5 c-1 -12 -15 -9 -19 4 -3 6 1
10 8 8 6 -3 11 -8 11 -12z"/>
<path d="M7519 3178 c0 -22 -1 -22 -9 -3 -7 16 -9 12 -9 -19 -1 -38 -1 -39 19
-21 21 19 26 50 10 60 -6 3 -10 -4 -11 -17z"/>
<path d="M5827 3169 c-8 -29 2 -39 26 -30 18 7 18 8 -1 31 l-19 23 -6 -24z"/>
<path d="M7111 3174 c0 -11 3 -14 6 -6 3 7 2 16 -1 19 -3 4 -6 -2 -5 -13z"/>
<path d="M5691 3164 c0 -11 3 -14 6 -6 3 7 2 16 -1 19 -3 4 -6 -2 -5 -13z"/>
<path d="M6120 3168 c0 -20 13 -35 37 -42 12 -4 28 -20 35 -36 16 -37 32 -34
36 7 2 24 -1 33 -17 38 -12 3 -27 12 -34 19 -20 21 -57 30 -57 14z"/>
<path d="M5927 3125 c5 -30 3 -34 -11 -29 -21 8 -21 -23 -1 -50 14 -19 15 -19
15 -1 0 10 7 26 15 35 12 13 13 23 4 48 -15 43 -29 41 -22 -3z"/>
<path d="M5315 3140 c4 -6 11 -8 16 -5 14 9 11 15 -7 15 -8 0 -12 -5 -9 -10z"/>
<path d="M5615 3121 c-3 -5 -1 -12 5 -16 5 -3 10 1 10 9 0 18 -6 21 -15 7z"/>
<path d="M5835 3092 c3 -7 5 -16 5 -19 0 -3 7 0 15 7 21 17 19 29 -5 27 -13
-1 -19 -6 -15 -15z"/>
<path d="M27 2863 l-27 -4 0 -166 0 -165 80 7 c56 5 80 4 80 -4 0 -6 17 -11
40 -11 22 0 40 5 40 10 0 14 78 12 82 -2 3 -8 38 -11 119 -9 332 8 593 5 597
-7 2 -7 21 -12 43 -12 21 0 39 -4 39 -10 0 -5 18 -10 40 -10 22 0 40 -4 40
-10 0 -5 18 -10 40 -10 22 0 40 -4 40 -10 0 -5 15 -10 34 -10 18 0 51 -8 72
-17 22 -9 59 -18 84 -20 25 -2 47 -8 48 -13 2 -6 17 -10 34 -10 16 0 53 -6 81
-14 29 -8 123 -22 210 -32 103 -12 157 -22 157 -29 0 -13 86 -25 181 -25 33 0
59 -4 59 -8 0 -13 217 -35 353 -35 67 0 125 -5 128 -9 3 -5 102 -13 220 -18
118 -5 231 -12 251 -15 20 -3 39 -1 42 4 6 10 93 6 231 -9 141 -15 364 -13
371 4 4 10 42 15 157 21 127 6 157 4 182 -9 21 -11 45 -14 87 -9 55 6 58 5 58
-17 0 -21 3 -22 51 -18 28 3 46 2 40 -1 -6 -4 12 -7 40 -7 48 0 53 2 111 60
54 53 59 61 44 72 -10 7 -42 12 -72 11 -32 -1 -56 3 -58 9 -3 7 -18 11 -35 9
-17 -1 -31 0 -31 4 0 8 -40 10 -154 10 -49 0 -92 4 -95 10 -4 5 -39 11 -78 13
-40 2 -76 7 -79 11 -4 4 -25 7 -46 7 -21 0 -38 4 -38 9 0 9 -146 27 -195 24
-16 -1 -50 4 -75 12 -25 8 -76 17 -115 20 -38 4 -92 11 -118 16 -27 5 -53 7
-57 4 -5 -3 -21 0 -37 6 -39 15 -218 38 -338 44 -102 4 -241 20 -330 37 -156
29 -171 31 -330 47 -60 6 -127 16 -148 22 -34 9 -63 13 -182 23 -16 2 -84 11
-151 20 -66 9 -136 16 -155 15 -54 -2 -324 33 -327 42 -2 5 -36 9 -76 9 -40 0
-76 4 -81 9 -6 5 -84 12 -175 15 -91 4 -196 11 -235 17 -38 7 -91 13 -116 14
-26 2 -56 8 -66 14 -11 5 -51 11 -89 12 -38 0 -85 5 -104 9 -56 14 -170 30
-235 35 -33 2 -73 8 -88 14 -16 6 -31 10 -35 10 -4 -1 -19 -4 -35 -6z m4158
-633 c-3 -5 -10 -10 -16 -10 -5 0 -9 5 -9 10 0 6 7 10 16 10 8 0 12 -4 9 -10z"/>
<path d="M7090 2540 c0 -5 5 -10 11 -10 5 0 7 5 4 10 -3 6 -8 10 -11 10 -2 0
-4 -4 -4 -10z"/>
<path d="M7088 2313 c6 -2 18 -2 25 0 6 3 1 5 -13 5 -14 0 -19 -2 -12 -5z"/>
<path d="M7041 2244 c0 -11 3 -14 6 -6 3 7 2 16 -1 19 -3 4 -6 -2 -5 -13z"/>
<path d="M6945 2170 c-11 -5 -16 -9 -11 -9 5 -1 2 -9 -5 -18 -12 -14 -10 -14
14 1 15 10 27 22 27 27 0 5 -1 9 -2 8 -2 0 -12 -4 -23 -9z"/>
<path d="M6888 2153 c7 -3 16 -2 19 1 4 3 -2 6 -13 5 -11 0 -14 -3 -6 -6z"/>
<path d="M6815 2060 c-10 -11 -15 -23 -12 -27 4 -3 7 -1 7 5 0 6 9 14 20 17
11 3 20 11 20 16 0 15 -16 10 -35 -11z"/>
<path d="M5260 2060 c-13 -8 -13 -11 3 -27 12 -12 17 -13 17 -4 0 10 6 10 25
-3 26 -17 110 -22 119 -7 10 15 -23 34 -49 29 -14 -3 -33 1 -42 8 -21 16 -52
17 -73 4z"/>
<path d="M4924 2015 c-8 -31 1 -55 20 -55 16 0 24 24 18 58 -6 30 -30 28 -38
-3z"/>
<path d="M5440 1980 c0 -11 2 -20 4 -20 2 0 6 9 9 20 3 11 1 20 -4 20 -5 0 -9
-9 -9 -20z"/>
<path d="M6620 1980 c0 -5 4 -10 9 -10 6 0 13 5 16 10 3 6 -1 10 -9 10 -9 0
-16 -4 -16 -10z"/>
<path d="M4967 1953 c-4 -3 -7 -23 -7 -44 0 -21 -4 -41 -10 -44 -5 -3 -10 -14
-10 -24 0 -10 -9 -29 -19 -43 -46 -58 -58 -229 -20 -291 11 -19 19 -50 19 -76
0 -25 4 -70 10 -100 5 -31 17 -103 25 -161 14 -90 22 -115 58 -175 22 -38 57
-102 77 -141 20 -40 42 -80 50 -89 14 -17 15 -16 20 6 3 12 2 52 -2 88 -4 36
-8 124 -9 196 0 71 -6 152 -14 180 -7 27 -16 84 -19 125 -7 73 -24 220 -46
390 -6 47 -15 87 -21 88 -5 2 -9 12 -9 23 0 11 -6 37 -12 59 -10 30 -18 40
-34 40 -11 0 -24 -3 -27 -7z"/>
<path d="M6240 1804 c0 -9 5 -14 12 -12 18 6 21 28 4 28 -9 0 -16 -7 -16 -16z"/>
<path d="M6450 1790 c0 -5 6 -10 14 -10 8 0 18 5 21 10 3 6 -3 10 -14 10 -12
0 -21 -4 -21 -10z"/>
<path d="M6018 1783 c12 -2 32 -2 45 0 12 2 2 4 -23 4 -25 0 -35 -2 -22 -4z"/>
<path d="M6400 1761 c0 -25 6 -27 13 -6 4 8 2 17 -3 20 -6 4 -10 -3 -10 -14z"/>
<path d="M6007 1733 c-13 -12 -7 -23 13 -23 11 0 20 7 20 15 0 15 -21 21 -33
8z"/>
</g>
</svg>
